<svg class="img-fluid" id="outputsvg" xmlns="http://www.w3.org/2000/svg" style="transform: none; transform-origin: 50% 50%; cursor: move;" width="600" height="600" viewBox="0 0 6000 6000"><g id="l4ldwdLj7sXUdSnWNyX69Hm" fill="rgb(0,0,0)" style="transform: none;"><g><path id="psa1zuils" d="M2635 5470 c-38 -4 -114 -11 -168 -15 -54 -5 -100 -12 -103 -16 -3 -5 -24 -9 -47 -9 -23 -1 -69 -8 -102 -16 -94 -24 -137 -34 -180 -43 -22 -5 -60 -15 -85 -24 -25 -9 -53 -17 -63 -17 -9 0 -25 -4 -35 -9 -32 -16 -127 -51 -140 -51 -6 0 -12 -4 -12 -10 0 -5 -8 -10 -17 -10 -10 0 -33 -9 -51 -20 -18 -11 -39 -20 -47 -20 -8 0 -15 -4 -15 -9 0 -5 -12 -14 -27 -21 -47 -19 -73 -34 -73 -42 0 -5 -5 -8 -11 -8 -5 0 -37 -19 -71 -42 -33 -24 -68 -47 -76 -53 -9 -5 -28 -22 -43 -37 -16 -16 -31 -28 -34 -28 -6 0 -78 -66 -149 -136 -50 -50 -128 -140 -140 -162 -5 -10 -14 -22 -20 -28 -6 -6 -18 -22 -26 -34 -8 -12 -25 -36 -38 -53 -12 -17 -32 -51 -44 -76 -12 -24 -41 -74 -65 -110 -23 -36 -43 -70 -43 -75 0 -5 -31 -55 -70 -112 -58 -87 -131 -222 -160 -299 -5 -11 -15 -37 -24 -57 -9 -20 -19 -51 -22 -70 -3 -18 -9 -42 -14 -53 -4 -11 -16 -63 -26 -115 -27 -136 -27 -590 0 -730 10 -52 22 -104 26 -115 4 -11 15 -47 23 -80 8 -33 24 -94 35 -135 11 -41 23 -100 26 -130 8 -67 24 -155 36 -195 5 -16 11 -41 14 -55 15 -83 180 -414 233 -468 7 -7 13 -17 13 -22 0 -5 6 -15 13 -22 7 -7 24 -29 37 -48 13 -19 29 -40 35 -46 5 -6 29 -34 52 -61 57 -67 100 -113 106 -113 3 0 21 -15 39 -33 52 -49 110 -97 141 -115 15 -9 27 -20 27 -24 0 -4 7 -8 15 -8 8 0 15 -4 15 -9 0 -5 9 -13 20 -16 11 -3 26 -12 33 -18 14 -14 43 -31 102 -61 22 -12 42 -23 45 -26 5 -5 41 -22 88 -41 50 -21 107 -52 127 -69 56 -48 208 -140 275 -168 14 -5 46 -19 72 -31 26 -12 54 -21 62 -21 8 0 18 -5 21 -10 3 -6 15 -10 26 -10 10 0 27 -4 37 -9 27 -14 87 -31 107 -31 10 0 32 -4 49 -9 17 -6 76 -18 131 -28 135 -23 549 -28 645 -7 36 8 82 18 103 21 21 3 40 10 43 14 3 5 16 9 30 9 14 0 33 4 42 9 9 5 69 14 132 20 63 6 132 16 153 21 92 24 123 34 131 42 6 4 20 8 33 8 13 0 23 5 23 10 0 6 8 10 18 10 47 0 462 241 462 268 0 4 13 16 30 25 38 23 196 178 240 237 19 25 37 47 41 50 4 3 29 41 58 85 28 44 55 85 59 90 5 6 12 23 16 38 3 15 11 27 16 27 6 0 10 5 10 11 0 22 58 136 81 160 33 33 101 69 132 69 37 0 106 -43 173 -107 7 -7 15 -13 18 -13 3 0 25 -13 49 -30 25 -16 49 -30 54 -30 5 0 28 -9 51 -20 22 -11 53 -20 67 -20 14 0 25 -4 25 -10 0 -6 39 -10 96 -10 127 0 134 7 133 129 0 136 -25 282 -57 338 -6 12 -12 29 -12 37 0 9 -4 16 -9 16 -5 0 -13 10 -17 22 -7 25 -73 118 -82 118 -4 0 -18 22 -31 49 l-23 48 17 114 c63 415 39 1202 -45 1494 -5 17 -11 43 -14 59 -5 26 -23 86 -46 151 -21 60 -82 176 -95 181 -8 4 -15 10 -15 15 0 6 -19 27 -42 49 -37 34 -102 71 -197 114 -31 14 -279 12 -294 -3 -6 -6 -19 -11 -30 -11 -22 0 -121 -41 -125 -52 -2 -4 -11 -8 -20 -8 -9 0 -28 -9 -42 -20 -41 -32 -57 -26 -63 23 -8 64 -28 139 -44 164 -9 13 -12 23 -8 23 4 0 3 6 -3 13 -5 6 -22 34 -38 62 -15 27 -32 55 -38 61 -6 6 -18 22 -26 35 -34 52 -192 200 -261 246 -69 44 -186 107 -234 124 -39 13 -120 54 -123 62 -2 4 -8 7 -12 7 -5 0 -28 13 -52 29 -24 15 -52 31 -63 34 -11 3 -51 17 -90 31 -38 14 -78 26 -88 26 -9 0 -25 4 -35 9 -92 48 -477 90 -647 71z m301 -155 c369 -41 483 -95 540 -254 19 -51 28 -287 14 -341 -6 -25 -15 -61 -19 -80 -9 -38 -58 -137 -78 -158 -7 -7 -13 -17 -13 -22 0 -14 -183 -193 -231 -225 -24 -16 -46 -32 -49 -35 -14 -14 -161 -88 -235 -120 -11 -4 -49 -22 -85 -39 -36 -17 -71 -31 -78 -31 -6 0 -12 -4 -12 -10 0 -5 -6 -10 -12 -10 -7 0 -40 -13 -73 -29 -33 -16 -75 -35 -92 -42 -18 -8 -33 -17 -33 -21 0 -5 -6 -8 -14 -8 -8 0 -40 -13 -71 -30 -31 -16 -63 -30 -71 -30 -8 0 -14 -4 -14 -8 0 -13 -71 -32 -117 -32 -45 0 -103 17 -103 31 0 5 -5 9 -10 9 -10 0 -66 36 -80 50 -3 3 -27 17 -55 30 -27 14 -51 28 -53 33 -2 4 -12 7 -22 7 -10 0 -20 3 -22 8 -5 12 -180 92 -202 92 -8 0 -18 5 -21 10 -3 6 -17 10 -30 10 -13 0 -26 4 -29 8 -3 5 -31 15 -63 22 -32 7 -62 17 -67 22 -6 4 -25 8 -42 8 -18 0 -35 4 -38 9 -3 4 -22 11 -43 14 -21 4 -56 9 -78 13 -22 3 -48 10 -57 15 -9 5 -32 9 -52 9 -19 0 -38 5 -41 10 -3 6 -37 10 -75 10 -38 0 -72 5 -75 10 -3 6 -22 10 -41 10 -29 0 -34 3 -34 24 0 13 6 37 14 53 8 15 25 49 38 76 13 26 26 47 30 47 5 0 8 4 8 10 0 8 70 107 107 150 90 106 136 155 192 200 24 19 48 40 55 45 6 6 27 22 46 35 19 13 37 27 40 30 10 12 101 70 111 70 5 0 9 3 9 8 0 4 21 18 48 32 26 13 49 27 52 31 12 14 208 109 226 109 8 0 14 4 14 9 0 4 20 14 45 21 25 7 48 17 51 21 3 5 16 9 30 9 13 0 32 4 42 10 23 13 128 41 177 47 22 3 42 9 45 13 3 4 55 13 115 20 61 7 119 16 130 20 34 14 305 11 451 -5z m742 -216 c2 -5 9 -9 15 -9 15 0 101 -43 105 -52 2 -5 10 -8 18 -8 8 0 14 -4 14 -9 0 -5 14 -14 30 -21 17 -7 30 -16 30 -21 0 -5 4 -9 10 -9 15 0 46 -27 135 -115 97 -97 112 -116 147 -180 36 -68 64 -147 79 -227 23 -123 -22 -235 -163 -411 -62 -76 -217 -226 -283 -272 -15 -11 -36 -28 -47 -37 -10 -10 -22 -18 -28 -18 -5 0 -10 -4 -10 -9 0 -5 -13 -14 -30 -21 -16 -7 -30 -16 -30 -19 0 -4 -17 -16 -37 -28 -124 -67 -158 -87 -161 -95 -2 -4 -11 -8 -21 -8 -9 0 -22 -5 -28 -11 -8 -8 -19 -8 -42 2 -37 17 -41 50 -12 102 11 19 25 45 33 58 7 13 15 26 18 29 5 5 23 36 39 68 5 9 21 41 36 70 14 29 30 65 35 80 5 15 18 52 30 82 23 59 28 76 60 215 34 145 44 248 44 455 0 195 -12 333 -35 382 -16 37 -5 61 23 52 13 -3 25 -11 26 -15z m1242 -700 c36 -5 69 -14 75 -20 5 -5 16 -9 25 -9 8 0 22 -9 30 -20 8 -11 20 -20 26 -20 16 0 45 -65 38 -84 -5 -12 -20 -16 -63 -16 -56 0 -129 -13 -166 -29 -55 -24 -115 -57 -115 -63 0 -5 -4 -8 -9 -8 -10 0 -145 -136 -179 -180 -17 -22 -57 -93 -105 -185 -25 -47 -67 -191 -77 -259 -34 -254 -34 -251 -71 -376 -26 -90 -40 -116 -99 -195 -43 -57 -87 -102 -134 -135 -52 -37 -154 -151 -175 -196 -45 -96 -52 -134 -49 -297 l3 -153 -42 -84 c-56 -113 -155 -215 -258 -265 -22 -11 -41 -23 -43 -27 -2 -5 -9 -8 -16 -8 -6 0 -30 -9 -51 -20 -22 -12 -77 -34 -123 -50 -77 -28 -85 -29 -111 -15 -39 20 -52 78 -52 229 -1 123 18 260 47 344 16 48 61 138 79 158 5 7 19 25 30 40 11 16 48 57 82 91 35 34 63 65 63 70 0 4 -16 19 -35 33 -21 15 -45 48 -62 85 -26 56 -28 68 -28 190 1 130 4 149 49 272 33 89 111 189 215 273 24 19 48 40 55 45 6 6 44 35 84 64 39 30 72 58 72 62 0 5 5 9 11 9 6 0 16 6 23 13 7 6 37 32 67 57 30 25 69 60 88 77 18 18 35 33 37 33 5 0 74 70 74 75 0 2 17 21 38 42 20 22 48 54 62 72 14 18 31 39 38 46 17 19 102 164 102 175 0 21 166 113 254 140 89 28 198 35 296 19z m212 -290 c45 -23 52 -29 84 -75 22 -31 54 -165 54 -225 0 -19 4 -39 9 -44 4 -6 17 -86 27 -180 27 -244 28 -831 1 -985 -11 -58 -23 -109 -28 -114 -5 -6 -9 -19 -9 -31 0 -51 -81 -237 -130 -297 -77 -95 -238 -228 -277 -228 -7 0 -13 -3 -13 -8 0 -8 -64 -38 -104 -48 -14 -3 -29 -10 -32 -15 -3 -5 -18 -9 -33 -9 -15 0 -31 -4 -36 -9 -15 -13 -155 -31 -241 -31 -86 0 -214 17 -229 31 -5 5 -19 9 -32 9 -13 0 -31 4 -41 10 -9 5 -48 23 -85 41 -38 17 -76 43 -84 56 -17 26 -15 41 18 168 6 22 14 108 18 190 6 121 11 159 28 197 32 71 76 129 145 194 130 123 155 151 189 204 68 110 139 290 139 357 0 13 5 23 10 23 6 0 10 19 10 41 0 52 55 287 82 354 57 137 76 170 161 279 12 16 24 32 27 35 3 4 21 18 40 31 19 13 37 27 40 30 14 14 90 50 109 50 11 0 21 5 21 10 0 19 118 11 162 -11z m-4187 -34 c28 -3 97 -8 155 -9 106 -4 271 -29 302 -46 10 -6 31 -10 48 -10 17 0 38 -4 48 -9 9 -5 51 -20 92 -32 41 -12 80 -25 85 -30 6 -4 29 -13 53 -20 23 -6 42 -16 42 -21 0 -4 7 -8 15 -8 8 0 37 -13 65 -30 28 -16 53 -30 56 -30 3 0 10 -5 17 -10 7 -6 24 -19 40 -31 31 -24 37 -66 10 -75 -10 -3 -27 -10 -38 -14 -11 -5 -48 -14 -83 -21 -34 -6 -65 -16 -68 -20 -3 -5 -16 -9 -29 -9 -13 0 -26 -4 -29 -9 -3 -4 -20 -11 -37 -15 -30 -6 -42 -10 -141 -55 -26 -11 -52 -21 -58 -21 -5 0 -10 -4 -10 -10 0 -5 -6 -10 -14 -10 -14 0 -85 -37 -96 -50 -3 -3 -26 -17 -52 -30 -27 -14 -48 -28 -48 -32 0 -5 -6 -8 -14 -8 -8 0 -16 -3 -18 -7 -1 -5 -26 -24 -54 -43 -104 -71 -257 -213 -324 -300 -19 -25 -37 -47 -40 -50 -3 -3 -17 -21 -30 -40 -13 -19 -30 -41 -37 -48 -7 -7 -13 -17 -13 -22 0 -5 -6 -15 -12 -22 -14 -15 -24 -31 -63 -107 -47 -89 -74 -82 -109 24 -94 291 -98 666 -9 940 16 52 95 216 116 242 34 43 87 87 118 98 34 13 70 13 164 0z m2065 -303 c61 -10 153 -37 186 -53 30 -15 57 -75 44 -99 -5 -10 -10 -54 -10 -97 0 -70 3 -81 26 -108 48 -56 49 -83 10 -280 -31 -154 -36 -192 -36 -258 0 -36 4 -68 9 -71 4 -3 11 -29 14 -57 4 -28 14 -63 23 -77 22 -34 24 -107 3 -124 -45 -38 -136 -200 -173 -310 -31 -93 -42 -273 -27 -448 15 -179 40 -220 134 -220 51 0 131 15 159 31 10 5 25 9 33 9 8 0 23 4 33 9 9 5 53 27 97 49 88 43 127 64 135 73 3 3 25 16 50 30 25 13 48 28 51 32 13 17 78 19 110 3 17 -9 40 -16 51 -16 10 0 18 -4 18 -9 0 -5 12 -12 28 -16 15 -3 41 -13 57 -20 17 -7 44 -16 60 -19 17 -3 62 -12 100 -20 81 -18 341 -22 394 -6 19 5 37 8 39 5 3 -2 -3 -20 -12 -39 -9 -19 -16 -39 -16 -45 0 -6 -4 -11 -9 -11 -5 0 -12 -9 -16 -19 -20 -65 -182 -269 -285 -361 -40 -36 -82 -73 -92 -82 -10 -10 -23 -18 -28 -18 -5 0 -10 -4 -10 -8 0 -5 -12 -15 -27 -23 -16 -8 -37 -22 -47 -31 -11 -10 -32 -24 -48 -30 -15 -7 -28 -16 -28 -20 0 -5 -6 -8 -14 -8 -8 0 -16 -3 -18 -7 -5 -13 -209 -110 -278 -133 -36 -12 -74 -26 -85 -30 -79 -33 -251 -29 -335 7 -63 27 -198 96 -224 116 -69 50 -153 113 -162 122 -6 5 -34 31 -61 57 -27 25 -70 70 -94 98 -24 29 -56 66 -71 84 -15 17 -28 34 -28 38 0 4 -6 13 -12 20 -7 7 -26 33 -43 58 -16 25 -32 47 -35 50 -12 11 -160 306 -160 318 0 5 -13 43 -28 83 -53 137 -80 234 -89 319 -2 25 -8 54 -13 65 -14 28 -40 320 -40 438 0 136 18 376 35 472 8 44 16 96 19 115 8 67 37 164 63 211 26 49 112 139 132 139 6 0 11 4 11 9 0 5 14 14 30 21 17 7 30 16 30 21 0 5 8 9 18 9 10 0 22 4 28 8 18 16 117 52 143 52 14 0 33 5 41 10 17 12 155 7 240 -8z m-992 -154 c18 -18 14 -62 -8 -89 -29 -35 -33 -41 -51 -69 -9 -14 -26 -36 -38 -50 -11 -14 -24 -29 -29 -35 -4 -5 -17 -26 -28 -45 -10 -19 -25 -41 -31 -48 -7 -7 -13 -17 -13 -22 0 -5 -6 -15 -12 -22 -29 -31 -178 -331 -178 -358 0 -6 -4 -18 -10 -28 -8 -15 -38 -112 -83 -272 -16 -53 -34 -149 -44 -220 -2 -19 -11 -81 -19 -136 -8 -61 -14 -178 -14 -295 1 -233 11 -322 60 -539 12 -52 24 -119 27 -147 l5 -53 -30 0 c-17 0 -32 3 -34 8 -1 4 -25 18 -53 32 -27 14 -59 33 -69 42 -11 10 -24 18 -29 18 -34 0 -292 231 -367 329 -14 18 -32 40 -40 51 -69 84 -200 313 -200 348 0 6 -4 12 -9 12 -5 0 -11 10 -14 23 -3 12 -17 56 -32 97 -24 67 -26 89 -26 210 0 129 1 139 32 215 18 44 49 106 68 139 20 32 41 68 48 80 7 11 30 41 52 66 22 25 41 51 41 58 0 6 4 12 8 12 4 0 26 23 47 52 46 59 180 197 244 248 24 19 48 40 55 46 22 20 195 134 205 134 5 0 11 3 13 8 4 10 90 52 106 52 6 0 12 5 12 10 0 6 7 10 16 10 9 0 33 9 53 19 59 31 107 51 140 57 17 4 31 10 31 15 0 5 13 9 28 9 15 0 32 4 38 9 11 11 70 29 100 30 11 1 25 -4 32 -11z m213 -69 c18 -18 20 -28 14 -67 -4 -26 -13 -60 -21 -76 -8 -16 -14 -35 -14 -42 0 -8 -12 -53 -26 -101 -60 -206 -65 -701 -11 -1025 9 -47 20 -101 25 -120 6 -18 25 -80 43 -138 17 -58 38 -119 45 -137 8 -17 14 -34 14 -37 0 -20 146 -319 182 -372 15 -23 28 -47 28 -53 0 -6 4 -11 9 -11 5 0 14 -13 21 -30 7 -16 16 -30 21 -30 5 0 9 -5 9 -11 0 -9 22 -39 95 -128 47 -57 159 -163 240 -226 21 -16 44 -36 51 -43 7 -6 16 -12 21 -12 4 -1 24 -14 43 -30 19 -17 38 -30 43 -30 5 0 15 -7 23 -15 8 -8 22 -19 32 -24 30 -17 -5 -39 -81 -51 -40 -6 -94 -15 -120 -20 -27 -6 -91 -10 -143 -10 -91 0 -128 4 -319 36 -49 8 -106 18 -125 21 -19 3 -39 9 -45 13 -5 4 -31 13 -58 20 -26 7 -50 17 -53 21 -3 5 -12 9 -21 9 -17 0 -75 24 -148 62 -22 12 -50 26 -62 32 -13 6 -23 14 -23 19 0 4 -5 7 -10 7 -16 0 -36 17 -109 91 -60 60 -119 154 -134 214 -3 11 -17 62 -31 113 -14 51 -26 107 -26 123 0 17 -5 39 -10 49 -18 33 -47 445 -40 550 11 142 30 292 41 311 5 10 9 29 9 43 0 14 12 69 26 123 14 54 29 112 33 128 17 64 73 223 96 273 14 29 25 59 25 67 0 8 4 15 8 15 4 0 14 17 21 38 8 20 17 39 20 42 4 3 15 21 24 40 30 61 114 190 154 236 10 12 38 46 63 74 44 52 93 90 118 90 6 0 21 -9 33 -21z m3190 -1386 c31 -38 79 -141 90 -196 6 -29 15 -70 20 -92 12 -60 11 -109 -5 -131 -12 -16 -25 -19 -76 -16 -36 1 -78 10 -103 22 -22 11 -47 20 -54 20 -7 0 -13 5 -13 10 0 6 -5 10 -11 10 -15 0 -95 56 -135 95 -33 32 -43 55 -26 55 16 0 162 149 162 165 0 3 19 35 42 71 l42 66 24 -29 c13 -15 32 -38 43 -50z"></path><path id="pTa5lf4Mi" d="M4077 3509 c-27 -4 -57 -15 -66 -23 -10 -9 -21 -16 -24 -16 -8 0 -42 -28 -72 -59 -35 -36 -64 -102 -71 -161 -5 -46 -3 -59 13 -79 27 -34 48 -22 77 41 23 51 103 138 125 138 6 0 11 5 11 10 0 6 6 10 13 10 7 0 34 13 60 30 41 26 47 34 47 64 0 19 -3 37 -7 39 -20 11 -62 13 -106 6z"></path><path id="pbWPMgdLK" d="M3664 2385 c-7 -19 -14 -41 -14 -48 0 -8 -7 -20 -15 -27 -8 -7 -15 -18 -15 -24 0 -6 -23 -31 -51 -56 -29 -25 -59 -52 -68 -60 -9 -8 -33 -27 -53 -42 -50 -38 -98 -114 -98 -155 0 -39 7 -41 40 -10 14 12 42 34 63 48 107 74 242 201 268 251 21 42 26 127 7 146 -23 23 -48 13 -64 -23z"></path></g></g></svg>