<svg class="img-fluid" id="outputsvg" xmlns="http://www.w3.org/2000/svg" style="transform: none; transform-origin: 50% 50%; cursor: move;" width="1200" height="600" viewBox="0 0 12000 6000"><g id="l7m3erLe2FQsYTbI6nktD60" fill="rgb(0,0,0)" style="transform: none;"><g><path id="pWI5tUenm" d="M5845 5340 c-38 -4 -114 -11 -168 -15 -54 -5 -100 -12 -103 -16 -3 -5 -24 -9 -47 -9 -23 -1 -69 -8 -102 -16 -94 -24 -137 -34 -180 -43 -22 -5 -60 -15 -85 -24 -25 -9 -53 -17 -63 -17 -9 0 -25 -4 -35 -9 -32 -16 -127 -51 -140 -51 -6 0 -12 -4 -12 -10 0 -5 -8 -10 -17 -10 -10 0 -33 -9 -51 -20 -18 -11 -39 -20 -47 -20 -8 0 -15 -4 -15 -9 0 -5 -12 -14 -27 -21 -47 -19 -73 -34 -73 -42 0 -5 -5 -8 -11 -8 -5 0 -37 -19 -71 -42 -33 -24 -68 -47 -76 -53 -9 -5 -28 -22 -43 -37 -16 -16 -31 -28 -34 -28 -6 0 -78 -66 -149 -136 -50 -50 -128 -140 -140 -162 -5 -10 -14 -22 -20 -28 -6 -6 -18 -22 -26 -34 -8 -12 -25 -36 -38 -53 -12 -17 -32 -51 -44 -76 -12 -24 -41 -74 -65 -110 -23 -36 -43 -70 -43 -75 0 -5 -31 -55 -69 -112 -39 -56 -86 -135 -106 -175 -20 -41 -37 -75 -39 -76 -1 -1 -24 4 -51 13 -104 31 -234 46 -447 51 -409 10 -605 -32 -721 -156 -52 -55 -80 -111 -97 -193 -6 -30 -15 -257 -21 -523 -5 -258 -13 -580 -18 -715 -5 -155 -4 -252 2 -264 9 -18 22 -19 355 -12 191 4 351 10 356 13 9 6 7 112 -14 764 -11 330 -7 390 29 459 13 25 31 41 65 55 43 17 50 18 88 5 31 -11 46 -25 62 -55 19 -36 21 -57 21 -220 0 -99 -4 -368 -9 -597 l-9 -417 26 -6 c14 -4 119 -5 233 -3 l208 3 28 -70 c51 -126 168 -345 205 -383 7 -7 13 -17 13 -22 0 -5 6 -15 13 -22 7 -7 24 -29 37 -48 13 -19 29 -40 35 -46 5 -6 29 -34 52 -61 57 -67 100 -113 106 -113 3 0 21 -15 39 -33 52 -49 110 -97 141 -115 15 -9 27 -20 27 -24 0 -4 7 -8 15 -8 8 0 15 -4 15 -9 0 -5 9 -13 20 -16 11 -3 26 -12 33 -18 14 -14 43 -31 102 -61 22 -12 42 -23 45 -26 5 -5 41 -22 88 -41 50 -21 107 -52 127 -69 56 -48 208 -140 275 -168 14 -5 46 -19 72 -31 26 -12 54 -21 62 -21 8 0 18 -5 21 -10 3 -6 15 -10 26 -10 10 0 27 -4 37 -9 27 -14 87 -31 107 -31 10 0 32 -4 49 -9 17 -6 76 -18 131 -28 135 -23 549 -28 645 -7 36 8 82 18 103 21 21 3 40 10 43 14 3 5 16 9 30 9 14 0 33 4 42 9 9 5 69 14 132 20 63 6 132 16 153 21 92 24 123 34 131 42 6 4 20 8 33 8 13 0 23 5 23 10 0 6 8 10 18 10 47 0 462 241 462 268 0 4 13 16 30 25 38 23 196 178 240 237 19 25 37 47 41 50 4 3 29 41 58 85 28 44 55 85 59 90 5 6 12 23 16 38 3 15 11 27 16 27 6 0 10 5 10 11 0 22 58 136 81 160 33 33 101 69 132 69 37 0 106 -43 173 -107 7 -7 15 -13 18 -13 3 0 25 -13 49 -30 25 -16 49 -30 54 -30 5 0 28 -9 51 -20 22 -11 53 -20 67 -20 14 0 25 -4 25 -10 0 -6 39 -10 96 -10 127 0 134 7 133 129 0 136 -25 282 -57 338 -6 12 -12 26 -12 31 0 6 108 12 273 15 236 4 283 7 357 26 169 43 309 133 384 246 65 97 79 152 80 305 2 239 -45 348 -208 482 -34 28 -65 57 -69 64 -7 13 55 151 247 544 36 74 66 142 66 151 0 15 -35 16 -365 16 -322 0 -366 -2 -378 -16 -8 -9 -60 -137 -117 -286 -56 -148 -106 -274 -110 -279 -4 -4 -11 1 -14 12 -6 18 -3 76 25 415 8 99 9 151 2 158 -7 7 -56 7 -149 0 -201 -16 -200 -16 -213 17 -6 15 -13 40 -15 56 -5 26 -23 85 -46 151 -21 60 -82 176 -95 181 -8 4 -15 10 -15 15 0 6 -19 27 -42 49 -37 34 -102 71 -197 114 -31 14 -279 12 -294 -3 -6 -6 -19 -11 -30 -11 -22 0 -121 -41 -125 -52 -2 -4 -11 -8 -20 -8 -9 0 -28 -9 -42 -20 -41 -32 -57 -26 -63 23 -8 64 -28 139 -44 164 -9 13 -12 23 -8 23 4 0 3 6 -3 13 -5 6 -22 34 -38 62 -15 27 -32 55 -38 61 -6 6 -18 22 -26 35 -34 52 -192 200 -261 246 -69 44 -186 107 -234 124 -39 13 -120 54 -123 62 -2 4 -8 7 -12 7 -5 0 -28 13 -52 29 -24 15 -52 31 -63 34 -11 3 -51 17 -90 31 -38 14 -78 26 -88 26 -9 0 -25 4 -35 9 -92 48 -477 90 -647 71z m270 -185 c369 -41 491 -99 542 -255 18 -55 26 -228 13 -280 -6 -25 -15 -61 -19 -80 -9 -38 -58 -137 -78 -158 -7 -7 -13 -17 -13 -22 0 -14 -183 -193 -231 -225 -24 -16 -46 -32 -49 -35 -14 -14 -161 -88 -235 -120 -11 -4 -49 -22 -85 -39 -36 -17 -71 -31 -78 -31 -6 0 -12 -4 -12 -10 0 -5 -6 -10 -12 -10 -7 0 -40 -13 -73 -29 -33 -16 -75 -35 -92 -42 -18 -8 -33 -17 -33 -21 0 -5 -6 -8 -14 -8 -8 0 -40 -13 -71 -30 -31 -16 -63 -30 -71 -30 -8 0 -14 -4 -14 -9 0 -4 -20 -14 -44 -21 -34 -9 -52 -9 -80 0 -20 6 -36 16 -36 21 0 5 -5 9 -10 9 -10 0 -66 36 -80 50 -3 3 -27 17 -55 30 -27 14 -51 28 -53 33 -2 4 -12 7 -22 7 -10 0 -20 3 -22 8 -5 12 -180 92 -202 92 -8 0 -18 5 -21 10 -3 6 -17 10 -30 10 -13 0 -26 4 -29 8 -3 5 -31 15 -63 22 -32 7 -62 17 -67 22 -6 4 -24 8 -41 8 -18 0 -35 3 -39 7 -8 8 -153 40 -221 50 -22 3 -44 9 -49 14 -6 5 -40 9 -77 9 -37 0 -71 5 -74 10 -3 6 -19 10 -34 10 -28 0 -28 1 -17 33 20 52 49 107 58 107 4 0 8 4 8 10 0 8 70 107 107 150 90 106 136 155 192 200 24 19 48 40 55 45 6 6 27 22 46 35 19 13 37 27 40 30 10 12 101 70 111 70 5 0 9 3 9 8 0 4 21 18 48 32 26 13 49 27 52 31 12 14 208 109 226 109 8 0 14 4 14 9 0 4 20 14 45 21 25 7 48 17 51 21 3 5 16 9 30 9 13 0 32 4 42 10 23 13 128 41 177 47 22 3 42 9 45 13 3 4 55 13 115 20 61 7 119 16 130 20 32 14 249 11 390 -5z m838 -272 c9 -3 17 -9 17 -14 0 -5 7 -9 15 -9 8 0 15 -4 15 -9 0 -5 14 -14 30 -21 17 -7 30 -16 30 -21 0 -5 4 -9 10 -9 15 0 46 -27 135 -115 97 -97 112 -116 148 -182 61 -115 88 -225 71 -293 -18 -67 -71 -158 -156 -263 -62 -76 -217 -226 -283 -272 -15 -11 -36 -28 -47 -37 -10 -10 -22 -18 -28 -18 -5 0 -10 -4 -10 -9 0 -5 -13 -14 -30 -21 -16 -7 -30 -16 -30 -19 0 -4 -17 -16 -37 -28 -125 -68 -159 -87 -165 -97 -13 -19 -22 5 -10 24 7 11 18 30 25 43 6 12 14 24 17 27 5 5 23 36 39 68 5 9 21 41 36 70 14 29 30 65 35 80 5 15 18 52 30 82 12 30 26 71 31 90 29 116 52 226 62 300 13 100 15 529 3 614 -9 56 -8 59 10 52 10 -5 27 -11 37 -13z m1137 -654 c36 -5 69 -14 75 -20 5 -5 16 -9 25 -9 8 0 22 -9 30 -20 8 -11 20 -20 27 -20 7 0 13 -4 13 -10 0 -5 -21 -10 -47 -10 -50 0 -123 -14 -158 -29 -55 -24 -115 -57 -115 -63 0 -5 -4 -8 -9 -8 -10 0 -145 -136 -179 -180 -17 -22 -57 -93 -105 -185 -25 -47 -67 -191 -77 -259 -34 -254 -34 -251 -71 -376 -26 -90 -40 -116 -99 -195 -43 -57 -87 -102 -134 -135 -52 -37 -154 -151 -175 -196 -46 -97 -53 -137 -49 -299 l3 -151 -42 -85 c-56 -112 -156 -214 -258 -264 -22 -11 -41 -23 -43 -27 -2 -5 -8 -8 -14 -8 -6 0 -38 -13 -72 -29 -79 -37 -133 -54 -150 -48 -51 20 -45 325 10 486 16 47 61 137 79 157 5 7 19 25 30 40 11 16 48 57 82 91 60 59 63 64 63 110 -1 43 -4 51 -35 73 -21 15 -45 48 -62 85 -57 123 -27 324 71 477 36 58 97 122 165 178 24 19 48 40 55 45 6 6 44 35 84 64 39 30 72 58 72 62 0 5 5 9 11 9 6 0 16 6 23 13 7 6 37 32 67 57 30 25 69 60 88 77 18 18 35 33 37 33 5 0 74 70 74 75 0 2 17 21 38 42 20 22 48 54 62 72 14 18 31 39 38 46 17 19 102 164 102 175 0 21 166 113 254 140 21 7 62 16 90 20 28 4 53 8 56 9 3 0 34 -4 70 -10z m222 -280 c45 -23 52 -29 84 -75 22 -31 54 -165 54 -225 0 -19 4 -39 9 -44 4 -6 17 -86 27 -180 27 -242 27 -772 1 -925 -11 -58 -23 -109 -28 -115 -5 -5 -9 -18 -9 -30 0 -51 -81 -237 -130 -297 -77 -95 -238 -228 -277 -228 -7 0 -13 -3 -13 -8 0 -8 -64 -38 -104 -48 -14 -3 -29 -10 -32 -15 -3 -5 -18 -9 -34 -9 -16 0 -31 -4 -34 -9 -3 -5 -52 -15 -107 -22 -82 -10 -122 -10 -198 -1 -52 7 -100 17 -105 22 -6 6 -20 10 -31 10 -12 0 -35 6 -51 14 -16 8 -47 22 -69 32 -22 10 -53 26 -68 37 -31 21 -32 31 -7 127 7 25 15 113 19 195 6 121 11 159 28 197 32 71 76 129 145 194 130 123 155 151 189 204 68 110 139 290 139 357 0 13 5 23 10 23 6 0 10 19 10 41 0 52 55 287 82 354 57 137 76 170 161 279 12 16 24 32 27 35 3 4 21 18 40 31 19 13 37 27 40 30 14 14 90 50 109 50 11 0 21 5 21 10 0 17 59 11 102 -11z m-4077 -39 c147 -7 313 -31 347 -50 10 -6 31 -10 48 -10 17 0 38 -4 48 -9 9 -5 51 -20 92 -32 41 -12 80 -25 85 -30 6 -4 29 -13 53 -20 23 -6 42 -16 42 -21 0 -4 7 -8 15 -8 8 0 37 -13 65 -30 28 -16 55 -30 60 -30 6 0 10 -3 10 -7 0 -5 15 -16 33 -27 22 -13 27 -20 17 -23 -8 -2 -24 -8 -35 -13 -11 -4 -48 -14 -83 -21 -34 -6 -65 -16 -68 -20 -3 -5 -16 -9 -29 -9 -13 0 -26 -4 -29 -9 -3 -4 -20 -11 -37 -15 -30 -6 -42 -10 -141 -55 -26 -11 -52 -21 -58 -21 -5 0 -10 -4 -10 -10 0 -5 -6 -10 -14 -10 -14 0 -85 -37 -96 -50 -3 -3 -26 -17 -52 -30 -27 -14 -48 -28 -48 -32 0 -5 -6 -8 -14 -8 -8 0 -16 -3 -18 -7 -1 -5 -26 -24 -54 -43 -104 -71 -257 -213 -324 -300 -19 -25 -37 -47 -40 -50 -3 -3 -17 -21 -30 -40 -13 -19 -30 -41 -37 -48 -7 -7 -13 -17 -13 -22 0 -5 -6 -15 -12 -22 -13 -13 -52 -81 -73 -125 -5 -13 -12 -23 -15 -23 -13 1 -65 204 -79 310 -32 245 -15 465 51 650 20 58 91 202 111 227 55 69 132 118 167 105 8 -3 83 -9 165 -12z m1955 -298 c82 -14 177 -45 200 -65 18 -15 20 -29 20 -139 0 -123 0 -123 30 -158 28 -31 30 -41 27 -85 -2 -27 -12 -86 -21 -130 -9 -44 -20 -105 -26 -136 -12 -68 -13 -246 -1 -253 4 -3 11 -29 14 -57 4 -28 13 -62 22 -75 16 -25 20 -64 7 -64 -25 0 -139 -204 -176 -314 -32 -94 -43 -307 -27 -501 11 -136 25 -183 64 -210 38 -27 230 -16 289 16 10 5 25 9 33 9 8 0 23 4 33 9 9 5 53 27 97 49 88 43 127 64 135 73 3 3 25 16 50 30 25 13 47 27 48 32 5 11 60 9 67 -3 3 -5 17 -10 31 -10 13 0 24 -4 24 -9 0 -5 12 -12 28 -16 15 -3 41 -13 57 -20 17 -7 44 -16 60 -19 17 -3 62 -12 100 -20 46 -10 127 -15 238 -16 104 0 167 -4 167 -10 0 -5 -4 -10 -9 -10 -5 0 -12 -9 -16 -19 -20 -65 -182 -269 -285 -361 -40 -36 -82 -73 -92 -82 -10 -10 -22 -18 -28 -18 -5 0 -10 -4 -10 -8 0 -5 -12 -15 -27 -23 -16 -8 -37 -22 -47 -31 -11 -10 -32 -24 -48 -30 -15 -7 -28 -16 -28 -20 0 -5 -6 -8 -14 -8 -8 0 -16 -3 -18 -7 -5 -13 -209 -110 -278 -133 -36 -12 -74 -26 -85 -30 -71 -29 -198 -26 -275 7 -63 27 -198 96 -224 116 -69 50 -153 113 -162 122 -6 5 -34 31 -61 57 -27 25 -70 70 -94 98 -24 29 -56 66 -71 84 -15 17 -28 34 -28 38 0 4 -6 13 -12 20 -7 7 -26 33 -43 58 -16 25 -32 47 -35 50 -12 11 -160 306 -160 318 0 5 -13 43 -28 83 -54 139 -80 235 -89 324 -3 28 -9 55 -13 60 -5 6 -17 94 -26 195 -15 162 -16 210 -5 383 6 108 16 221 22 250 6 28 14 79 19 112 13 93 38 184 67 236 26 49 112 139 132 139 6 0 11 4 11 9 0 5 14 14 30 21 17 7 30 16 30 21 0 5 8 9 18 9 10 0 22 4 28 8 18 16 117 52 143 52 14 0 33 5 41 10 16 11 88 8 180 -8z m-990 -162 c0 -6 -5 -16 -10 -23 -37 -44 -50 -61 -50 -66 0 -3 -14 -22 -30 -41 -44 -52 -45 -52 -66 -90 -10 -19 -25 -41 -31 -48 -7 -7 -13 -17 -13 -22 0 -5 -6 -15 -12 -22 -29 -31 -178 -331 -178 -358 0 -6 -4 -18 -10 -28 -8 -15 -38 -112 -83 -272 -16 -53 -34 -149 -44 -220 -2 -19 -11 -81 -19 -136 -16 -115 -19 -506 -4 -619 16 -123 59 -341 75 -377 4 -12 3 -18 -5 -18 -16 0 -90 40 -114 63 -11 9 -24 17 -29 17 -34 0 -292 231 -367 329 -14 18 -32 40 -40 51 -69 84 -200 313 -200 348 0 6 -4 12 -9 12 -5 0 -11 10 -14 23 -3 12 -17 56 -31 97 -22 62 -26 92 -26 181 0 97 3 114 32 185 17 44 48 105 67 138 20 32 41 68 48 80 7 11 30 41 52 66 22 25 41 51 41 58 0 6 4 12 8 12 4 0 26 23 47 52 46 59 180 197 244 248 24 19 48 40 55 46 22 20 195 134 205 134 5 0 11 3 13 8 4 10 90 52 106 52 6 0 12 5 12 10 0 6 7 10 16 10 9 0 33 9 53 19 59 31 107 51 140 57 17 4 31 10 31 15 0 5 11 9 24 9 13 0 37 7 52 15 34 17 64 20 64 5z m220 -88 c0 -15 -7 -40 -15 -56 -8 -15 -15 -34 -15 -42 0 -8 -12 -53 -26 -101 -71 -243 -62 -956 14 -1205 6 -18 25 -80 43 -138 17 -58 38 -119 45 -137 8 -17 14 -34 14 -37 0 -20 146 -319 182 -372 15 -23 28 -47 28 -53 0 -6 4 -11 9 -11 5 0 14 -13 21 -30 7 -16 16 -30 21 -30 5 0 9 -5 9 -11 0 -9 22 -39 95 -128 47 -57 159 -163 240 -226 21 -16 44 -36 51 -43 7 -6 16 -12 21 -12 4 -1 24 -14 43 -30 19 -17 40 -30 48 -30 7 0 12 -6 10 -12 -3 -7 -27 -16 -54 -21 -27 -4 -74 -12 -105 -17 -102 -18 -161 -15 -404 26 -49 8 -106 18 -125 21 -19 3 -39 9 -45 13 -5 4 -31 13 -58 20 -26 7 -50 17 -53 21 -3 5 -12 9 -21 9 -17 0 -75 24 -148 62 -22 12 -50 26 -62 32 -13 6 -23 14 -23 19 0 4 -5 7 -10 7 -16 0 -36 17 -109 91 -60 60 -119 154 -134 214 -3 11 -17 62 -31 113 -14 51 -26 107 -26 123 0 17 -5 39 -10 49 -13 24 -40 325 -40 445 0 86 10 184 31 305 6 30 14 78 19 105 5 28 18 86 30 130 12 44 25 94 29 110 18 65 73 223 96 273 14 29 25 59 25 67 0 8 4 15 8 15 4 0 14 17 21 38 8 20 17 39 20 42 4 3 15 21 24 40 52 105 147 238 244 338 54 56 73 60 73 14z m3679 -582 c48 -24 71 -63 71 -120 0 -82 -50 -129 -153 -144 -65 -10 -85 -2 -97 42 -15 54 -13 239 3 246 25 11 137 -4 176 -24z m-506 -790 c29 -35 77 -139 88 -193 6 -29 14 -68 18 -88 15 -69 -22 -87 -101 -49 -23 11 -48 20 -55 20 -7 0 -13 5 -13 10 0 6 -5 10 -11 10 -13 0 -101 59 -115 78 -8 12 -2 24 30 56 44 44 86 93 86 101 0 9 42 75 49 75 3 0 14 -9 24 -20z"></path><path id="pPmnOZn7k" d="M7257 3410 c-27 -5 -57 -16 -66 -24 -10 -9 -21 -16 -24 -16 -23 0 -90 -73 -117 -127 -31 -61 -40 -192 -16 -228 15 -23 23 -26 64 -23 46 3 48 4 74 58 28 55 102 139 126 140 6 0 12 5 12 10 0 6 6 10 13 10 7 0 34 13 60 30 l47 30 0 64 c0 36 -5 68 -10 71 -18 11 -113 14 -163 5z"></path><path id="pSWhGb1up" d="M6844 2285 c-7 -19 -14 -41 -14 -48 0 -8 -7 -20 -15 -27 -8 -7 -15 -18 -15 -24 0 -6 -23 -31 -51 -56 -29 -25 -59 -52 -68 -60 -9 -8 -33 -27 -53 -42 -19 -15 -50 -48 -67 -74 -26 -41 -31 -57 -31 -111 l0 -63 38 0 c25 0 46 8 62 23 14 12 42 34 63 48 107 74 242 201 268 251 22 44 27 186 7 206 -7 7 -34 12 -61 12 -45 0 -49 -2 -63 -35z"></path><path id="pEkjNqTJd" d="M1060 3861 c-281 -60 -543 -272 -670 -544 -61 -131 -83 -236 -83 -397 0 -90 6 -162 17 -215 74 -340 332 -617 671 -721 84 -26 102 -28 270 -28 167 0 186 2 268 27 212 65 368 157 450 265 26 35 47 71 47 81 0 28 -53 101 -163 222 -120 133 -176 179 -219 179 -16 0 -59 -17 -96 -39 -96 -56 -155 -74 -242 -74 -92 0 -133 16 -199 78 -71 66 -95 121 -95 220 -1 63 4 91 22 131 29 64 102 136 167 165 57 26 156 30 219 9 l39 -12 -7 -57 c-19 -185 -29 -319 -23 -335 7 -17 16 -17 110 -10 56 5 221 9 367 9 l265 0 -2 105 c-2 58 -6 159 -10 225 -5 66 -4 181 0 255 5 74 9 194 10 265 l2 130 -54 3 c-30 2 -111 -6 -180 -18 -69 -11 -142 -21 -161 -21 -21 -1 -80 17 -145 44 -60 25 -145 53 -187 61 -103 21 -280 20 -388 -3z"></path><path id="p3Q2i9l00" d="M10531 3859 c-279 -34 -418 -138 -461 -341 -11 -54 -34 -907 -35 -1298 l0 -215 350 4 c193 2 354 6 359 9 9 5 7 134 -14 748 -12 339 -8 403 28 473 14 26 32 41 66 56 43 17 50 18 88 5 31 -11 46 -25 62 -55 19 -36 21 -57 21 -230 0 -104 -4 -373 -9 -596 -9 -395 -8 -407 10 -412 10 -3 171 -5 357 -5 l337 0 6 22 c3 12 -2 225 -10 472 -9 247 -15 546 -15 664 1 249 -14 360 -61 457 -59 121 -180 188 -413 229 -99 18 -557 27 -666 13z"></path></g></g><g id="l4dtRJYKQkg7X06btPzmV7b" fill="rgb(131,89,0)" style="transform: none;"><g><path id="ppuCghBhe" d="M5695 5190 c-11 -4 -69 -13 -130 -20 -60 -7 -112 -16 -115 -20 -3 -4 -23 -10 -45 -13 -49 -6 -154 -34 -177 -47 -10 -6 -29 -10 -42 -10 -14 0 -27 -4 -30 -9 -3 -4 -26 -14 -51 -21 -25 -7 -45 -17 -45 -21 0 -5 -6 -9 -14 -9 -18 0 -214 -95 -226 -109 -3 -4 -26 -18 -53 -31 -26 -14 -47 -28 -47 -32 0 -5 -4 -8 -9 -8 -10 0 -101 -58 -111 -70 -3 -3 -21 -17 -40 -30 -19 -13 -40 -29 -46 -35 -7 -5 -31 -26 -55 -45 -56 -45 -102 -94 -192 -200 -37 -43 -107 -142 -107 -150 0 -6 -3 -10 -8 -10 -4 0 -17 -21 -30 -47 -13 -27 -30 -61 -38 -76 -8 -16 -14 -40 -14 -53 0 -21 5 -24 34 -24 19 0 38 -4 41 -10 3 -5 37 -10 74 -10 37 0 71 -4 76 -9 6 -5 28 -11 50 -14 68 -10 213 -42 221 -50 4 -4 21 -7 39 -7 17 0 35 -4 41 -8 5 -5 35 -15 67 -22 32 -7 60 -17 63 -22 3 -4 16 -8 29 -8 13 0 27 -4 30 -10 3 -5 13 -10 21 -10 22 0 197 -80 202 -92 2 -5 12 -8 22 -8 10 0 20 -3 22 -7 2 -5 26 -19 53 -33 28 -13 52 -27 55 -30 14 -14 70 -50 80 -50 5 0 10 -4 10 -9 0 -14 58 -31 103 -31 46 0 117 19 117 32 0 4 6 8 14 8 8 0 40 14 71 30 31 17 63 30 71 30 8 0 14 3 14 8 0 4 15 13 33 21 17 7 59 26 92 42 33 16 66 29 73 29 6 0 12 5 12 10 0 6 6 10 12 10 7 0 42 14 78 31 36 17 74 35 85 39 74 32 221 106 235 120 3 3 25 19 49 35 48 32 231 211 231 225 0 5 6 15 13 22 20 21 69 120 78 158 4 19 13 55 19 80 14 54 5 290 -14 341 -57 159 -171 213 -540 254 -146 16 -417 19 -451 5z"></path><path id="pfLKbYoEa" d="M3991 3946 c-31 -12 -84 -57 -118 -99 -21 -26 -100 -190 -116 -242 -89 -274 -85 -649 9 -940 35 -106 62 -113 109 -24 39 76 49 92 63 107 6 7 12 17 12 22 0 5 6 15 13 22 7 7 24 29 37 48 13 19 27 37 30 40 3 3 21 25 40 50 67 87 220 229 324 300 28 19 53 38 54 43 2 4 10 7 18 7 8 0 14 3 14 8 0 4 21 18 48 32 26 13 49 27 52 30 11 13 82 50 96 50 8 0 14 5 14 10 0 6 5 10 10 10 6 0 32 10 58 21 99 45 111 49 141 55 17 4 34 11 37 15 3 5 16 9 29 9 13 0 26 4 29 9 3 4 34 14 68 20 35 7 72 16 83 21 11 4 28 11 38 14 27 9 21 51 -10 75 -16 12 -33 25 -40 31 -7 5 -14 10 -17 10 -3 0 -28 14 -56 30 -28 17 -57 30 -65 30 -8 0 -15 4 -15 8 0 5 -19 15 -42 21 -24 7 -47 16 -53 20 -5 5 -44 18 -85 30 -41 12 -83 27 -92 32 -10 5 -31 9 -48 9 -17 0 -38 4 -48 10 -33 18 -198 43 -342 50 -80 5 -167 11 -195 13 -30 4 -64 0 -84 -7z"></path><path id="p12Kpm4uiy" d="M5980 3650 c-8 -5 -27 -10 -41 -10 -26 0 -125 -36 -143 -52 -6 -4 -18 -8 -28 -8 -10 0 -18 -4 -18 -9 0 -5 -13 -14 -30 -21 -16 -7 -30 -16 -30 -21 0 -5 -5 -9 -11 -9 -20 0 -106 -90 -132 -139 -29 -52 -54 -143 -67 -236 -5 -33 -13 -84 -19 -114 -16 -81 -15 -91 14 -91 18 0 25 5 25 20 0 12 7 20 16 20 19 0 44 24 44 43 0 8 11 18 25 21 14 4 25 10 25 15 0 5 14 12 30 16 21 5 30 12 30 27 0 11 8 22 20 25 11 3 20 14 20 24 0 11 7 19 15 19 8 0 15 5 15 11 0 14 25 39 39 39 6 0 11 11 11 25 0 23 4 25 45 25 38 0 45 3 45 20 0 15 7 20 25 20 18 0 25 5 25 20 0 15 7 20 25 20 16 0 25 6 25 16 0 19 24 44 42 44 8 0 20 9 28 20 8 11 22 20 32 20 22 0 88 31 88 42 0 4 11 8 25 8 20 0 25 5 25 25 0 14 5 25 10 25 6 0 10 20 10 44 0 43 -1 44 -37 51 -68 12 -207 16 -223 5z"></path><path id="pC1CbW6pi" d="M5140 3488 c-19 -5 -39 -14 -44 -19 -6 -5 -23 -9 -38 -9 -15 0 -28 -4 -28 -9 0 -5 -14 -11 -31 -15 -33 -6 -81 -26 -140 -57 -20 -10 -44 -19 -53 -19 -9 0 -16 -4 -16 -10 0 -5 -6 -10 -12 -10 -16 0 -102 -42 -106 -52 -2 -5 -8 -8 -13 -8 -10 0 -183 -114 -205 -134 -7 -6 -31 -27 -55 -46 -64 -51 -198 -189 -244 -248 -21 -29 -43 -52 -47 -52 -4 0 -8 -6 -8 -12 0 -7 -19 -33 -41 -58 -22 -25 -45 -55 -52 -66 -7 -12 -28 -48 -48 -80 -19 -33 -50 -95 -68 -139 -31 -76 -32 -86 -32 -215 -1 -121 2 -143 26 -210 14 -41 29 -85 32 -98 3 -12 9 -22 14 -22 5 0 9 -6 9 -13 0 -7 17 -46 38 -87 63 -125 82 -147 82 -90 0 17 5 30 10 30 6 0 10 9 10 20 0 15 7 20 25 20 18 0 25 5 25 19 0 35 12 51 36 51 20 0 24 5 24 29 0 26 4 30 40 36 36 6 40 10 40 37 0 21 6 31 20 35 11 3 20 9 20 14 0 5 9 9 20 9 11 0 20 7 20 15 0 9 9 15 25 15 16 0 25 6 25 15 0 8 7 15 15 15 8 0 15 5 15 10 0 6 14 10 30 10 25 0 30 4 30 25 0 18 5 25 20 25 11 0 23 7 26 15 4 8 19 15 34 15 26 0 29 4 32 38 3 37 3 37 51 40 41 3 49 7 58 29 5 14 8 30 7 37 -3 19 14 88 74 291 16 55 33 108 38 117 6 10 10 22 10 28 0 27 149 327 178 358 6 7 12 17 12 22 0 5 6 15 13 22 6 7 21 29 31 48 11 19 24 40 28 45 5 6 18 21 29 35 12 14 29 36 38 50 18 28 22 34 51 69 22 27 26 71 8 89 -14 14 -39 14 -88 0z"></path><path id="pbfuSiGB6" d="M5365 3421 c-17 -10 -51 -42 -75 -71 -25 -28 -53 -62 -63 -74 -40 -46 -124 -175 -154 -236 -9 -19 -20 -37 -24 -40 -3 -3 -12 -22 -20 -42 -7 -21 -17 -38 -21 -38 -4 0 -8 -7 -8 -15 0 -8 -11 -38 -25 -67 -23 -50 -78 -208 -96 -273 -30 -115 -49 -188 -49 -191 0 -2 11 -4 25 -4 20 0 25 5 25 25 0 14 5 25 10 25 6 0 10 11 10 24 0 17 9 28 30 38 17 7 30 19 30 25 0 7 5 13 10 13 6 0 10 5 10 11 0 19 28 39 54 39 21 0 26 5 26 25 0 20 5 25 24 25 18 0 25 6 28 23 3 19 10 22 51 25 46 3 47 4 47 37 0 27 4 34 23 37 14 2 23 11 25 26 2 12 10 22 20 22 9 0 30 14 46 30 27 27 30 38 37 127 4 54 19 137 33 186 14 48 26 93 26 101 0 7 6 26 14 42 8 16 17 50 21 76 6 39 4 49 -14 67 -26 26 -38 26 -76 2z"></path></g></g><g id="l2SmurvWWSl2Fs6S70O7MGb" fill="rgb(155,115,0)" style="transform: none;"><g><path id="px5RtgntE" d="M8418 3799 c-11 -6 -18 -22 -18 -40 0 -37 -20 -59 -52 -59 -34 0 -73 -21 -84 -44 -5 -11 -18 -24 -29 -30 -11 -6 -22 -13 -25 -16 -12 -12 -51 -30 -65 -30 -9 0 -15 -9 -15 -26 0 -19 -7 -28 -30 -37 -17 -6 -33 -19 -36 -29 -3 -10 -14 -18 -24 -18 -11 0 -22 -11 -28 -28 -6 -18 -22 -34 -41 -42 -17 -7 -31 -16 -31 -21 0 -5 -9 -9 -20 -9 -13 0 -20 -7 -20 -19 0 -12 -11 -23 -30 -30 -16 -5 -30 -15 -30 -20 0 -6 -12 -14 -27 -17 -28 -7 -53 -26 -53 -40 0 -4 -13 -20 -30 -36 -16 -15 -30 -33 -30 -38 0 -6 -4 -10 -10 -10 -5 0 -10 -10 -10 -23 0 -67 -71 -247 -139 -357 -34 -53 -59 -81 -189 -204 -69 -65 -113 -123 -145 -194 -17 -38 -22 -76 -28 -197 -4 -82 -12 -168 -18 -190 -33 -127 -35 -142 -18 -168 8 -13 46 -39 84 -56 37 -18 76 -36 85 -41 10 -6 28 -10 41 -10 13 0 27 -4 32 -9 15 -14 143 -31 229 -31 86 0 226 18 241 31 5 5 21 9 36 9 15 0 30 4 33 9 3 5 18 12 32 15 40 10 104 40 104 48 0 5 6 8 13 8 39 0 200 133 277 228 49 60 130 246 130 297 0 12 4 25 9 30 5 6 17 57 28 115 27 154 26 741 -1 985 -10 94 -23 174 -27 180 -5 5 -9 26 -9 48 0 52 -20 127 -34 127 -6 0 -19 -5 -28 -11z"></path><path id="pViHgyUyf" d="M6230 2001 c0 -16 -6 -36 -14 -43 -7 -8 -17 -28 -20 -44 -7 -32 -49 -64 -85 -64 -12 0 -21 -6 -21 -14 0 -15 -21 -26 -51 -26 -14 0 -19 -7 -19 -30 0 -26 -4 -30 -27 -30 -19 0 -36 -10 -52 -30 -14 -18 -33 -30 -46 -30 -15 0 -26 -8 -30 -20 -3 -11 -15 -20 -26 -20 -14 0 -19 -7 -19 -29 0 -25 -6 -32 -35 -42 -22 -8 -35 -20 -35 -31 0 -10 -7 -18 -15 -18 -8 0 -15 -9 -15 -19 0 -11 -6 -21 -12 -23 -9 -3 -4 -22 17 -64 16 -32 32 -61 35 -64 3 -3 19 -25 35 -50 17 -25 36 -51 43 -58 6 -7 12 -16 12 -20 0 -4 13 -21 28 -38 15 -18 47 -55 71 -84 49 -57 46 -55 117 -121 40 -37 97 -81 200 -156 26 -20 161 -89 224 -116 84 -36 256 -40 335 -7 11 4 49 18 85 30 69 23 273 120 278 133 2 4 10 7 18 7 8 0 14 3 14 8 0 4 13 13 28 20 16 6 37 20 48 30 10 9 31 23 47 31 15 8 27 18 27 23 0 4 5 8 10 8 6 0 18 8 28 18 10 9 52 46 92 82 103 92 265 296 285 361 4 10 11 19 16 19 5 0 9 5 9 11 0 6 7 26 16 45 9 19 15 37 12 39 -2 3 -20 0 -39 -5 -53 -16 -313 -12 -394 6 -38 8 -83 17 -100 20 -16 3 -43 12 -60 19 -16 7 -42 17 -57 20 -16 4 -28 11 -28 16 0 5 -8 9 -18 9 -11 0 -34 7 -51 16 -32 16 -97 14 -110 -3 -3 -4 -26 -19 -51 -32 -25 -14 -47 -27 -50 -30 -8 -9 -47 -30 -135 -73 -44 -22 -88 -44 -97 -49 -10 -5 -25 -9 -33 -9 -8 0 -23 -4 -33 -9 -28 -16 -108 -31 -159 -31 -94 0 -119 41 -134 220 -6 69 -8 180 -4 248 l7 122 -31 0 c-28 0 -31 -3 -31 -29z"></path><path id="pEgvLRLEd" d="M5578 1443 c-10 -2 -18 -14 -18 -26 0 -25 -65 -87 -91 -87 -12 0 -19 -7 -19 -20 0 -11 -7 -20 -15 -20 -8 0 -15 -4 -15 -10 0 -5 -11 -10 -25 -10 -14 0 -25 -4 -25 -10 0 -5 -7 -10 -15 -10 -8 0 -15 -8 -15 -18 0 -25 -19 -42 -47 -42 -18 0 -23 -6 -23 -25 0 -19 -5 -25 -23 -25 -14 0 -26 -9 -32 -22 -6 -14 -21 -24 -37 -26 -20 -2 -30 -10 -34 -28 -3 -13 -10 -24 -16 -24 -5 0 -14 -13 -19 -29 -8 -21 -19 -32 -41 -36 -18 -4 -32 -15 -35 -26 -3 -10 -12 -19 -19 -19 -24 0 -15 -16 29 -54 60 -52 65 -56 77 -56 5 0 10 -3 10 -7 0 -5 10 -13 23 -19 12 -6 40 -20 62 -32 73 -38 131 -62 148 -62 9 0 18 -4 21 -9 3 -4 27 -14 53 -21 27 -7 53 -16 58 -20 6 -4 26 -10 45 -13 19 -3 76 -13 125 -21 191 -32 228 -36 319 -36 52 0 116 4 143 10 26 5 80 14 120 20 76 12 111 34 81 51 -10 5 -24 16 -32 24 -8 8 -18 15 -23 15 -5 0 -24 13 -43 30 -19 16 -39 29 -43 30 -5 0 -14 6 -21 13 -7 6 -30 26 -51 42 -81 63 -193 169 -240 226 -73 89 -95 119 -95 128 0 6 -4 11 -9 11 -5 0 -14 14 -21 30 -7 17 -16 30 -21 30 -5 0 -9 5 -9 10 0 6 -12 29 -27 53 -15 23 -39 64 -54 92 -28 52 -33 55 -61 48z"></path></g></g><g id="l3RmSyinFiAAUUCWMuEYEcw" fill="rgb(144,103,0)" style="transform: none;"><g><path id="ptv7D5QDv" d="M8180 3990 c0 -5 -10 -10 -21 -10 -19 0 -95 -36 -109 -50 -3 -3 -21 -17 -40 -30 -19 -13 -37 -27 -40 -31 -3 -3 -15 -19 -27 -35 -85 -109 -104 -142 -161 -279 -27 -67 -82 -302 -82 -354 0 -22 -4 -41 -10 -41 -5 0 -9 -17 -9 -37 1 -27 3 -31 6 -14 4 18 7 21 13 11 6 -10 10 -7 15 13 4 15 13 27 19 27 12 0 56 44 56 56 0 3 7 12 15 20 13 14 15 14 15 0 0 -9 7 -16 15 -16 8 0 15 7 15 15 0 21 29 51 58 59 12 4 22 15 22 26 0 13 5 17 20 13 13 -4 20 0 20 10 0 8 14 20 31 27 17 8 36 26 44 44 7 17 14 25 14 19 1 -19 51 -16 51 2 0 8 -4 15 -10 15 -22 0 3 27 36 39 30 11 35 17 30 36 -5 19 -3 22 13 18 11 -3 21 2 24 11 4 9 13 16 22 16 8 0 15 3 15 8 0 4 10 12 23 17 12 6 26 19 31 31 12 27 57 47 90 38 20 -5 26 -2 26 10 0 9 7 16 16 16 12 0 15 9 12 35 -1 23 3 39 11 45 20 12 7 92 -21 132 -34 48 -40 54 -86 77 -44 22 -162 30 -162 11z"></path><path id="pGC2eS46e" d="M6100 3651 c0 -12 37 -24 50 -16 20 12 10 25 -20 25 -16 0 -30 -4 -30 -9z"></path><path id="p1DAml0ns3" d="M6166 3625 c-19 -14 -18 -15 12 -15 22 0 32 -5 32 -15 0 -17 -31 -20 -46 -5 -6 6 -16 0 -27 -20 -10 -17 -13 -30 -8 -30 6 0 11 -6 11 -13 0 -16 -74 -52 -88 -43 -5 3 -18 -6 -28 -19 -10 -14 -27 -25 -36 -25 -10 0 -18 -4 -18 -10 0 -5 -6 -10 -14 -10 -9 0 -12 -7 -9 -20 4 -17 0 -20 -25 -20 -25 0 -29 -3 -25 -20 6 -22 -22 -29 -30 -7 -8 19 -26 -11 -20 -34 4 -14 0 -19 -16 -19 -12 0 -21 6 -21 15 0 8 -3 15 -8 15 -14 0 -42 -40 -42 -60 0 -11 -5 -20 -11 -20 -14 0 -39 -26 -39 -40 0 -7 -8 -10 -20 -7 -17 4 -19 1 -14 -18 4 -17 0 -24 -15 -28 -13 -3 -21 -13 -21 -25 0 -15 -9 -22 -30 -27 -16 -4 -30 -11 -30 -16 0 -5 -11 -11 -25 -15 -14 -3 -25 -13 -25 -21 0 -16 -24 -43 -38 -43 -6 0 -13 6 -15 13 -3 6 -6 -2 -6 -20 -1 -17 -5 -33 -10 -35 -12 -4 -31 -244 -31 -383 0 -120 26 -412 40 -440 5 -11 11 -40 13 -65 14 -133 99 -381 195 -567 24 -47 37 -61 52 -60 14 1 20 8 20 24 0 17 6 23 21 23 16 0 20 5 17 18 -4 14 3 22 28 31 28 10 34 17 34 42 0 22 5 29 19 29 11 0 23 9 26 20 5 15 12 19 28 15 17 -4 26 1 39 22 10 15 18 22 18 16 0 -7 7 -13 15 -13 18 0 20 29 3 31 -7 1 3 4 22 8 30 5 35 10 35 33 -1 20 4 28 16 28 28 0 49 11 49 26 0 8 9 14 21 14 27 0 79 31 79 47 0 7 5 13 11 13 6 0 9 8 7 18 -3 10 1 23 9 30 7 7 13 26 13 42 0 20 5 30 15 30 8 0 15 7 15 15 0 73 138 352 199 403 21 17 19 90 -3 124 -9 14 -19 49 -23 77 -3 28 -10 54 -14 57 -5 3 -9 35 -9 71 0 66 5 104 36 258 39 197 38 224 -10 280 -23 27 -26 38 -26 108 0 43 5 87 10 97 13 24 -14 84 -44 98 -43 21 -156 52 -188 52 -18 0 -42 -7 -52 -15z m24 -80 c0 -8 -7 -15 -15 -15 -8 0 -15 7 -15 15 0 8 7 15 15 15 8 0 15 -7 15 -15z"></path><path id="p1GvAAyEBV" d="M6076 3544 c-10 -26 -7 -32 14 -27 24 6 25 10 6 28 -12 12 -15 12 -20 -1z"></path><path id="p3Z1XSHUk" d="M7656 3043 c-4 -11 -3 -28 0 -38 7 -16 8 -16 16 4 4 13 4 30 -1 39 -7 13 -9 12 -15 -5z"></path><path id="p14L1Q0aNj" d="M5324 2898 c-13 -45 -84 -100 -84 -67 0 8 -5 7 -15 -1 -12 -10 -13 -15 -4 -21 7 -4 9 -15 5 -24 -5 -13 -14 -16 -36 -12 -31 7 -60 -12 -60 -38 0 -8 -11 -22 -25 -31 -14 -9 -25 -25 -25 -36 0 -17 -5 -19 -30 -13 -31 7 -60 -11 -60 -37 0 -8 -9 -20 -20 -28 -11 -8 -20 -20 -20 -27 0 -7 -4 -13 -10 -13 -5 0 -10 -6 -10 -13 0 -7 -16 -19 -35 -27 -30 -12 -34 -17 -28 -38 4 -17 2 -23 -6 -18 -7 5 -11 -3 -11 -23 0 -17 -4 -31 -9 -31 -6 0 -12 -21 -16 -47 -3 -27 -10 -61 -15 -78 -11 -36 -29 -175 -39 -310 -9 -110 20 -520 39 -555 5 -10 10 -32 10 -49 0 -16 12 -72 26 -123 14 -51 28 -104 31 -117 9 -38 65 -136 106 -184 39 -47 70 -54 80 -17 3 10 18 21 35 25 22 4 33 15 41 36 5 16 14 29 19 29 6 0 13 11 16 24 4 17 14 26 33 28 15 2 32 12 38 23 7 14 18 19 38 17 27 -3 29 -2 22 27 -6 27 -4 31 14 31 40 0 96 42 87 65 -3 8 -1 15 4 15 6 0 10 -4 10 -10 0 -5 7 -10 15 -10 8 0 15 9 15 20 0 14 7 20 21 20 16 0 20 5 16 20 -4 16 0 20 19 20 13 0 24 4 24 10 0 5 16 20 35 32 28 18 34 28 30 45 -4 16 -1 23 10 23 21 0 19 13 -9 73 -52 112 -86 187 -86 193 0 3 -6 20 -14 37 -7 18 -28 79 -45 137 -18 58 -37 120 -43 138 -15 50 -38 193 -50 317 -14 137 -16 457 -4 548 8 58 7 67 -7 67 -9 0 -19 -10 -23 -22z m-144 -183 c0 -8 -7 -15 -15 -15 -8 0 -15 7 -15 15 0 8 7 15 15 15 8 0 15 -7 15 -15z m-150 -100 c0 -8 -7 -15 -15 -15 -8 0 -15 7 -15 15 0 8 7 15 15 15 8 0 15 -7 15 -15z"></path><path id="pmgFYPOkz" d="M4682 2355 c-11 -14 -27 -25 -36 -25 -10 0 -16 -9 -16 -25 0 -20 -5 -25 -24 -25 -14 0 -28 -4 -31 -10 -3 -5 -13 -10 -21 -10 -23 0 -45 -26 -48 -57 -2 -24 -6 -28 -30 -26 -25 2 -27 0 -21 -28 5 -22 3 -29 -9 -29 -8 0 -18 5 -21 10 -10 17 -25 11 -25 -10 0 -11 -7 -20 -15 -20 -8 0 -15 -7 -15 -15 0 -18 -21 -20 -37 -4 -8 8 -16 8 -30 0 -17 -10 -17 -10 0 -11 9 0 17 -7 17 -15 0 -18 -26 -20 -33 -2 -3 6 -6 2 -6 -9 -1 -13 -9 -24 -21 -27 -15 -4 -20 -14 -20 -37 0 -27 -3 -32 -20 -27 -11 3 -20 2 -20 -3 0 -4 -15 -11 -32 -15 -18 -4 -27 -9 -20 -12 21 -8 14 -43 -9 -43 -16 0 -20 5 -16 19 3 14 0 17 -14 14 -25 -7 -35 -23 -15 -23 17 0 22 -25 7 -34 -5 -3 -7 -15 -4 -26 4 -15 0 -20 -16 -20 -11 0 -21 5 -21 11 0 5 -4 8 -9 5 -4 -3 -6 -17 -4 -30 4 -20 0 -26 -20 -31 -18 -5 -23 -12 -20 -26 3 -10 9 -16 14 -13 5 3 9 -1 9 -8 0 -13 64 -123 85 -144 5 -6 17 -22 25 -34 73 -108 364 -380 407 -380 5 0 18 -8 29 -18 10 -9 42 -28 69 -42 28 -14 51 -28 53 -32 2 -5 17 -8 34 -8 l30 0 -5 53 c-3 28 -15 95 -27 147 -49 217 -59 306 -60 539 0 115 6 234 14 295 24 168 25 185 12 190 -6 2 -3 5 7 5 12 1 17 9 17 30 0 16 3 36 6 45 10 26 -22 19 -44 -9z m-112 -140 c0 -8 -7 -15 -15 -15 -8 0 -15 7 -15 15 0 8 7 15 15 15 8 0 15 -7 15 -15z"></path></g></g><g id="l5wlKoHnfYoZNVJ57TbuGNw" fill="rgb(230,233,148)" style="transform: none;"><g><path id="p1B1kfJ3ga" d="M6845 4953 c8 -19 17 -63 36 -178 12 -78 7 -402 -10 -525 -8 -65 -31 -174 -60 -290 -5 -19 -19 -60 -31 -90 -12 -30 -25 -67 -30 -82 -5 -15 -21 -51 -35 -80 -15 -29 -31 -61 -36 -70 -16 -32 -34 -63 -39 -68 -3 -3 -11 -16 -18 -29 -8 -13 -22 -39 -33 -58 -10 -18 -19 -41 -19 -51 0 -19 47 -45 56 -31 3 5 14 9 24 9 10 0 20 4 22 8 3 8 37 28 161 95 20 12 37 24 37 28 0 3 14 12 30 19 16 7 30 16 30 21 0 5 5 9 10 9 6 0 18 8 28 18 11 9 32 26 47 37 53 37 89 70 175 157 118 120 173 191 226 288 46 85 59 149 44 223 -21 108 -74 233 -125 297 -25 31 -173 179 -203 203 -12 9 -27 17 -32 17 -6 0 -10 4 -10 9 0 5 -13 14 -30 21 -16 7 -30 16 -30 21 0 5 -6 9 -14 9 -8 0 -16 3 -18 8 -4 10 -90 52 -105 52 -7 0 -13 5 -13 10 0 6 -9 10 -21 10 -16 0 -19 -4 -14 -17z"></path><path id="p1HlFLS8MI" d="M7934 4260 c-28 -4 -69 -13 -90 -20 -88 -27 -254 -119 -254 -140 0 -11 -85 -156 -102 -175 -7 -7 -24 -28 -38 -46 -14 -18 -42 -50 -62 -72 -21 -21 -38 -40 -38 -42 0 -5 -69 -75 -74 -75 -2 0 -19 -15 -37 -33 -19 -17 -58 -52 -88 -77 -30 -25 -60 -51 -67 -57 -7 -7 -17 -13 -23 -13 -6 0 -11 -4 -11 -9 0 -4 -33 -32 -72 -62 -40 -29 -78 -58 -84 -64 -7 -5 -31 -26 -55 -45 -104 -84 -182 -184 -215 -273 -44 -121 -48 -143 -49 -262 0 -111 2 -125 28 -180 17 -37 41 -70 62 -85 19 -14 35 -33 35 -43 0 -10 -28 -46 -63 -80 -34 -34 -71 -75 -82 -91 -11 -15 -25 -33 -30 -40 -18 -20 -63 -110 -79 -158 -43 -126 -62 -387 -35 -493 16 -64 41 -74 117 -50 31 9 84 30 118 46 34 16 66 29 72 29 6 0 12 3 14 8 2 4 21 16 43 27 103 50 202 152 258 265 l42 84 -3 152 c-3 162 3 201 49 298 21 45 123 159 175 196 47 33 91 78 134 135 59 79 73 105 99 195 37 125 37 122 71 376 10 68 52 212 77 259 48 92 88 163 105 185 34 44 169 180 179 180 5 0 9 3 9 8 0 6 60 39 115 63 37 16 110 29 168 29 52 0 57 2 57 23 -1 24 -21 57 -36 57 -5 0 -16 9 -24 20 -8 11 -22 20 -30 20 -9 0 -20 4 -25 9 -12 12 -127 31 -175 30 -19 -1 -58 -5 -86 -9z m-541 -887 c4 -2 7 -20 7 -39 0 -30 -6 -38 -47 -64 -26 -17 -53 -30 -60 -30 -7 0 -13 -4 -13 -10 0 -5 -5 -10 -11 -10 -22 0 -102 -87 -125 -138 -29 -63 -50 -75 -77 -41 -35 44 -3 176 58 240 30 31 64 59 72 59 3 0 14 7 24 16 28 26 137 37 172 17z m-455 -1095 c19 -19 14 -104 -7 -146 -26 -50 -161 -177 -268 -251 -21 -14 -49 -36 -63 -48 -33 -31 -40 -29 -40 10 0 41 48 117 98 155 20 15 44 34 53 42 9 8 39 35 68 60 28 25 51 50 51 56 0 6 7 17 15 24 8 7 15 19 15 27 0 7 7 29 14 48 16 36 41 46 64 23z"></path><path id="pHAT5iVau" d="M8530 2033 c-19 -31 -37 -60 -39 -66 -11 -28 -146 -167 -163 -167 -14 0 53 -63 105 -99 25 -17 50 -31 56 -31 6 0 11 -4 11 -10 0 -5 6 -10 13 -10 7 0 32 -9 54 -20 23 -11 65 -20 94 -21 76 -3 91 25 70 126 -5 22 -14 63 -20 92 -11 56 -59 159 -90 196 -11 12 -28 32 -38 44 l-18 23 -35 -57z"></path></g></g></svg>