<svg class="img-fluid" id="outputsvg" xmlns="http://www.w3.org/2000/svg" style="transform: matrix(1, 0, 0, 1, 0, 0); transform-origin: 50% 50%; cursor: move; max-height: none;" width="600" height="600" viewBox="0 0 6000 6000"><g id="l4z0KGRnHUzi4yM4zUcozqs" fill="rgb(0,0,0)" style="transform: none;"><g style="transform: none;"><path id="pQtMx0mlQ" d="M2715 5430 c-38 -4 -114 -11 -168 -15 -54 -5 -100 -12 -103 -16 -3 -5 -24 -9 -47 -9 -23 -1 -69 -8 -102 -16 -94 -24 -137 -34 -180 -43 -22 -5 -60 -15 -85 -24 -25 -9 -53 -17 -63 -17 -9 0 -25 -4 -35 -9 -32 -16 -127 -51 -140 -51 -6 0 -12 -4 -12 -10 0 -5 -8 -10 -17 -10 -10 0 -33 -9 -51 -20 -18 -11 -39 -20 -47 -20 -8 0 -15 -4 -15 -9 0 -5 -12 -14 -27 -21 -47 -19 -73 -34 -73 -42 0 -5 -5 -8 -11 -8 -5 0 -37 -19 -71 -42 -33 -24 -68 -47 -76 -53 -9 -5 -28 -22 -43 -37 -16 -16 -31 -28 -34 -28 -6 0 -78 -66 -149 -136 -50 -50 -128 -140 -140 -162 -5 -10 -14 -22 -20 -28 -6 -6 -18 -22 -26 -34 -8 -12 -25 -36 -38 -53 -12 -17 -32 -51 -44 -76 -12 -24 -41 -74 -65 -110 -23 -36 -43 -70 -43 -75 0 -5 -31 -55 -70 -112 -58 -87 -131 -222 -160 -299 -5 -11 -15 -37 -24 -57 -9 -20 -19 -51 -22 -70 -3 -18 -9 -42 -14 -53 -4 -11 -16 -63 -26 -115 -27 -136 -27 -590 0 -730 10 -52 22 -104 26 -115 4 -11 15 -47 23 -80 8 -33 24 -94 35 -135 11 -41 23 -100 26 -130 8 -67 24 -155 36 -195 5 -16 11 -41 14 -55 15 -83 180 -414 233 -468 7 -7 13 -17 13 -22 0 -5 6 -15 13 -22 7 -7 24 -29 37 -48 13 -19 29 -40 35 -46 5 -6 29 -34 52 -61 57 -67 100 -113 106 -113 3 0 21 -15 39 -33 52 -49 110 -97 141 -115 15 -9 27 -20 27 -24 0 -4 7 -8 15 -8 8 0 15 -4 15 -9 0 -5 9 -13 20 -16 11 -3 26 -12 33 -18 14 -14 43 -31 102 -61 22 -12 42 -23 45 -26 5 -5 41 -22 88 -41 50 -21 107 -52 127 -69 56 -48 208 -140 275 -168 14 -5 46 -19 72 -31 26 -12 54 -21 62 -21 8 0 18 -5 21 -10 3 -6 15 -10 26 -10 10 0 27 -4 37 -9 27 -14 87 -31 107 -31 10 0 32 -4 49 -9 17 -6 76 -18 131 -28 135 -23 549 -28 645 -7 36 8 82 18 103 21 21 3 40 10 43 14 3 5 16 9 30 9 14 0 33 4 42 9 9 5 69 14 132 20 63 6 132 16 153 21 92 24 123 34 131 42 6 4 20 8 33 8 13 0 23 5 23 10 0 6 8 10 18 10 47 0 462 241 462 268 0 4 13 16 30 25 38 23 196 178 240 237 19 25 37 47 41 50 4 3 29 41 58 85 28 44 55 85 59 90 5 6 12 23 16 38 3 15 11 27 16 27 6 0 10 5 10 11 0 22 58 136 81 160 33 33 101 69 132 69 37 0 106 -43 173 -107 7 -7 15 -13 18 -13 3 0 25 -13 49 -30 25 -16 49 -30 54 -30 5 0 28 -9 51 -20 22 -11 53 -20 67 -20 14 0 25 -4 25 -10 0 -6 39 -10 96 -10 127 0 134 7 133 129 0 136 -25 282 -57 338 -6 12 -12 29 -12 37 0 9 -4 16 -9 16 -5 0 -13 10 -17 22 -7 25 -73 118 -82 118 -4 0 -18 22 -31 49 l-23 48 17 114 c63 415 39 1202 -45 1494 -5 17 -11 43 -14 59 -5 26 -23 86 -46 151 -21 60 -82 176 -95 181 -8 4 -15 10 -15 15 0 6 -19 27 -42 49 -37 34 -102 71 -197 114 -31 14 -279 12 -294 -3 -6 -6 -19 -11 -30 -11 -22 0 -121 -41 -125 -52 -2 -4 -11 -8 -20 -8 -9 0 -28 -9 -42 -20 -41 -32 -57 -26 -63 23 -8 64 -28 139 -44 164 -9 13 -12 23 -8 23 4 0 3 6 -3 13 -5 6 -22 34 -38 62 -15 27 -32 55 -38 61 -6 6 -18 22 -26 35 -34 52 -192 200 -261 246 -69 44 -186 107 -234 124 -39 13 -120 54 -123 62 -2 4 -8 7 -12 7 -5 0 -28 13 -52 29 -24 15 -52 31 -63 34 -11 3 -51 17 -90 31 -38 14 -78 26 -88 26 -9 0 -25 4 -35 9 -92 48 -477 90 -647 71z m270 -185 c369 -41 491 -99 542 -255 18 -55 26 -228 13 -280 -6 -25 -15 -61 -19 -80 -9 -38 -58 -137 -78 -158 -7 -7 -13 -17 -13 -22 0 -14 -183 -193 -231 -225 -24 -16 -46 -32 -49 -35 -14 -14 -161 -88 -235 -120 -11 -4 -49 -22 -85 -39 -36 -17 -71 -31 -78 -31 -6 0 -12 -4 -12 -10 0 -5 -6 -10 -12 -10 -7 0 -40 -13 -73 -29 -33 -16 -75 -35 -92 -42 -18 -8 -33 -17 -33 -21 0 -5 -6 -8 -14 -8 -8 0 -40 -13 -71 -30 -31 -16 -63 -30 -71 -30 -8 0 -14 -4 -14 -9 0 -4 -20 -14 -44 -21 -34 -9 -52 -9 -80 0 -20 6 -36 16 -36 21 0 5 -5 9 -10 9 -10 0 -66 36 -80 50 -3 3 -27 17 -55 30 -27 14 -51 28 -53 33 -2 4 -12 7 -22 7 -10 0 -20 3 -22 8 -5 12 -180 92 -202 92 -8 0 -18 5 -21 10 -3 6 -17 10 -30 10 -13 0 -26 4 -29 8 -3 5 -31 15 -63 22 -32 7 -62 17 -67 22 -6 4 -23 8 -38 8 -16 0 -36 4 -46 9 -9 5 -44 14 -77 21 -33 6 -74 15 -91 21 -17 5 -44 9 -62 9 -17 0 -34 5 -37 10 -3 6 -37 10 -75 10 -38 0 -72 5 -75 10 -3 6 -19 10 -34 10 -28 0 -28 1 -17 33 20 52 49 107 58 107 4 0 8 4 8 10 0 8 70 107 107 150 90 106 136 155 192 200 24 19 48 40 55 45 6 6 27 22 46 35 19 13 37 27 40 30 10 12 101 70 111 70 5 0 9 3 9 8 0 4 21 18 48 32 26 13 49 27 52 31 12 14 208 109 226 109 8 0 14 4 14 9 0 4 20 14 45 21 25 7 48 17 51 21 3 5 16 9 30 9 13 0 32 4 42 10 23 13 128 41 177 47 22 3 42 9 45 13 3 4 55 13 115 20 61 7 119 16 130 20 32 14 249 11 390 -5z m820 -250 c22 -11 42 -23 43 -27 2 -5 10 -8 18 -8 8 0 14 -4 14 -9 0 -5 14 -14 30 -21 17 -7 30 -16 30 -21 0 -5 4 -9 10 -9 15 0 46 -27 135 -115 97 -97 112 -116 148 -182 35 -65 55 -122 72 -198 15 -72 4 -129 -41 -210 -76 -137 -266 -347 -399 -440 -15 -11 -36 -28 -47 -37 -10 -10 -22 -18 -28 -18 -5 0 -10 -4 -10 -9 0 -5 -13 -14 -30 -21 -16 -7 -30 -16 -30 -19 0 -4 -17 -16 -37 -28 -124 -67 -158 -87 -161 -95 -2 -4 -17 -8 -33 -8 l-29 0 19 34 c11 18 25 44 33 57 7 13 15 26 18 29 5 5 23 36 39 68 5 9 21 41 36 70 14 29 30 65 35 80 5 15 18 52 30 82 12 30 26 71 31 90 29 116 52 224 60 290 16 117 22 486 10 560 -17 105 -20 142 -13 138 4 -2 25 -12 47 -23z m1165 -666 c36 -5 69 -14 75 -20 5 -5 16 -9 25 -9 8 0 22 -9 30 -20 8 -11 19 -20 25 -20 6 0 16 -9 23 -20 12 -19 10 -20 -45 -20 -58 0 -131 -13 -168 -29 -55 -24 -115 -57 -115 -63 0 -5 -4 -8 -9 -8 -10 0 -145 -136 -179 -180 -17 -22 -57 -93 -105 -185 -25 -47 -67 -191 -77 -259 -34 -254 -34 -251 -71 -376 -26 -90 -40 -116 -99 -195 -43 -57 -87 -102 -134 -135 -52 -37 -154 -151 -175 -196 -46 -98 -53 -138 -49 -299 l3 -151 -42 -85 c-56 -112 -155 -214 -258 -264 -22 -11 -41 -23 -43 -27 -2 -5 -9 -8 -16 -8 -6 0 -30 -9 -51 -20 -22 -12 -70 -31 -106 -45 -53 -19 -70 -21 -82 -12 -53 41 -48 340 9 506 16 47 61 137 79 157 5 7 19 25 30 40 11 16 48 57 82 91 56 54 63 66 63 100 -1 32 -6 42 -35 63 -21 15 -45 48 -62 85 -25 53 -28 71 -28 160 1 97 7 126 49 242 33 89 111 189 215 273 24 19 48 40 55 45 6 6 44 35 84 64 39 30 72 58 72 62 0 5 5 9 11 9 6 0 16 6 23 13 7 6 37 32 67 57 30 25 69 60 88 77 18 18 35 33 37 33 5 0 74 70 74 75 0 2 17 21 38 42 20 22 48 54 62 72 14 18 31 39 38 46 17 19 102 164 102 175 0 21 166 113 254 140 34 11 112 25 156 29 8 0 44 -4 80 -10z m212 -290 c45 -23 52 -29 84 -75 22 -31 54 -165 54 -225 0 -19 4 -39 9 -44 4 -6 17 -86 27 -180 27 -242 27 -772 1 -925 -11 -58 -23 -109 -28 -115 -5 -5 -9 -18 -9 -30 0 -51 -81 -237 -130 -297 -77 -95 -238 -228 -277 -228 -7 0 -13 -3 -13 -8 0 -8 -64 -38 -104 -48 -14 -3 -29 -10 -32 -15 -3 -5 -18 -9 -34 -9 -16 0 -31 -4 -34 -9 -3 -5 -52 -15 -107 -22 -82 -10 -122 -10 -198 -1 -52 7 -100 17 -105 22 -6 6 -20 10 -31 10 -12 0 -35 6 -51 14 -16 8 -47 22 -69 32 -22 10 -53 26 -68 37 -31 21 -32 31 -7 127 7 25 15 113 19 195 6 121 11 159 28 197 32 71 76 129 145 194 130 123 155 151 189 204 68 110 139 290 139 357 0 13 5 23 10 23 6 0 10 19 10 41 0 52 55 287 82 354 57 137 76 170 161 279 12 16 24 32 27 35 3 4 21 18 40 31 19 13 37 27 40 30 14 14 90 50 109 50 11 0 21 5 21 10 0 17 59 11 102 -11z m-4027 -44 c107 -5 269 -29 297 -45 10 -6 31 -10 48 -10 17 0 38 -4 48 -9 9 -5 51 -20 92 -32 41 -12 80 -25 85 -30 6 -4 29 -13 53 -20 23 -6 42 -16 42 -21 0 -4 7 -8 15 -8 8 0 37 -13 65 -30 28 -16 55 -30 60 -30 6 0 10 -3 10 -7 0 -5 15 -16 33 -27 22 -13 27 -20 17 -23 -8 -2 -24 -8 -35 -13 -11 -4 -48 -14 -83 -21 -34 -6 -65 -16 -68 -20 -3 -5 -16 -9 -29 -9 -13 0 -26 -4 -29 -9 -3 -4 -20 -11 -37 -15 -30 -6 -42 -10 -141 -55 -26 -11 -52 -21 -58 -21 -5 0 -10 -4 -10 -10 0 -5 -6 -10 -14 -10 -14 0 -85 -37 -96 -50 -3 -3 -26 -17 -52 -30 -27 -14 -48 -28 -48 -32 0 -5 -6 -8 -14 -8 -8 0 -16 -3 -18 -7 -2 -5 -26 -24 -54 -43 -104 -71 -257 -213 -324 -300 -19 -25 -37 -47 -40 -50 -3 -3 -17 -21 -30 -40 -13 -19 -30 -41 -37 -48 -7 -7 -13 -17 -13 -22 0 -5 -6 -15 -12 -22 -13 -13 -52 -81 -73 -125 -5 -13 -12 -23 -15 -23 -5 0 -42 118 -59 190 -31 133 -45 332 -32 460 20 191 51 303 122 444 45 87 48 92 103 146 45 46 58 50 156 43 41 -2 120 -6 175 -8z m1905 -293 c82 -14 177 -45 200 -65 18 -15 20 -29 20 -139 0 -123 0 -123 30 -158 28 -31 30 -41 27 -85 -2 -27 -12 -86 -21 -130 -9 -44 -20 -105 -26 -136 -12 -68 -13 -246 -1 -253 4 -3 11 -29 14 -57 4 -28 13 -62 22 -75 16 -25 20 -64 7 -64 -25 0 -139 -204 -176 -314 -32 -94 -43 -307 -27 -501 11 -136 25 -183 64 -210 38 -27 230 -16 289 16 10 5 25 9 33 9 8 0 23 4 33 9 9 5 53 27 97 49 88 43 127 64 135 73 3 3 25 16 50 30 25 13 47 27 48 32 5 11 60 9 67 -3 3 -5 17 -10 31 -10 13 0 24 -4 24 -9 0 -5 12 -12 28 -16 15 -3 41 -13 57 -20 17 -7 44 -16 60 -19 17 -3 62 -12 100 -20 46 -10 127 -15 238 -16 104 0 167 -4 167 -10 0 -5 -4 -10 -9 -10 -5 0 -12 -9 -16 -19 -20 -65 -182 -269 -285 -361 -40 -36 -82 -73 -92 -82 -10 -10 -22 -18 -28 -18 -5 0 -10 -4 -10 -8 0 -5 -12 -15 -27 -23 -16 -8 -37 -22 -47 -31 -11 -10 -32 -24 -48 -30 -15 -7 -28 -16 -28 -20 0 -5 -6 -8 -14 -8 -8 0 -16 -3 -18 -7 -5 -13 -209 -110 -278 -133 -36 -12 -74 -26 -85 -30 -71 -29 -198 -26 -275 7 -63 27 -198 96 -224 116 -69 50 -153 113 -162 122 -6 5 -34 31 -61 57 -27 25 -70 70 -94 98 -24 29 -56 66 -71 84 -15 17 -28 34 -28 38 0 4 -6 13 -12 20 -7 7 -26 33 -43 58 -16 25 -32 47 -35 50 -12 11 -160 306 -160 318 0 5 -13 43 -28 83 -54 139 -80 235 -89 324 -3 28 -9 55 -13 60 -5 6 -17 94 -26 195 -15 162 -16 210 -5 383 6 108 16 221 22 250 6 28 14 79 19 112 13 93 38 184 67 236 26 49 112 139 132 139 6 0 11 4 11 9 0 5 14 14 30 21 17 7 30 16 30 21 0 5 8 9 18 9 10 0 22 4 28 8 18 16 117 52 143 52 14 0 33 5 41 10 16 11 88 8 180 -8z m-990 -162 c0 -6 -5 -16 -10 -23 -37 -44 -50 -61 -50 -66 0 -3 -14 -22 -30 -41 -44 -52 -45 -52 -66 -90 -10 -19 -25 -41 -31 -48 -7 -7 -13 -17 -13 -22 0 -5 -6 -15 -12 -22 -29 -31 -178 -331 -178 -358 0 -6 -4 -18 -10 -28 -8 -15 -38 -112 -83 -272 -16 -53 -34 -149 -44 -220 -2 -19 -11 -81 -19 -136 -16 -115 -19 -506 -4 -619 16 -123 59 -341 75 -377 4 -12 3 -18 -5 -18 -16 0 -90 40 -114 63 -11 9 -24 17 -29 17 -34 0 -292 231 -367 329 -14 18 -32 40 -40 51 -69 84 -200 313 -200 348 0 6 -4 12 -9 12 -5 0 -11 10 -14 23 -3 12 -17 56 -31 97 -22 62 -26 92 -26 181 0 97 3 114 32 185 17 44 48 105 67 138 20 32 41 68 48 80 7 11 30 41 52 66 22 25 41 51 41 58 0 6 4 12 8 12 4 0 26 23 47 52 46 59 180 197 244 248 24 19 48 40 55 46 22 20 195 134 205 134 5 0 11 3 13 8 4 10 90 52 106 52 6 0 12 5 12 10 0 6 7 10 16 10 9 0 33 9 53 19 59 31 107 51 140 57 17 4 31 10 31 15 0 5 11 9 24 9 13 0 37 7 52 15 34 17 64 20 64 5z m220 -88 c0 -15 -7 -40 -15 -56 -8 -15 -15 -34 -15 -42 0 -8 -12 -53 -26 -101 -71 -243 -62 -956 14 -1205 6 -18 25 -80 43 -138 17 -58 38 -119 45 -137 8 -17 14 -34 14 -37 0 -20 146 -319 182 -372 15 -23 28 -47 28 -53 0 -6 4 -11 9 -11 5 0 14 -13 21 -30 7 -16 16 -30 21 -30 5 0 9 -5 9 -11 0 -9 22 -39 95 -128 47 -57 159 -163 240 -226 21 -16 44 -36 51 -43 7 -6 16 -12 21 -12 4 -1 24 -14 43 -30 19 -17 40 -30 48 -30 7 0 12 -6 10 -12 -3 -7 -27 -16 -54 -21 -27 -4 -74 -12 -105 -17 -102 -18 -161 -15 -404 26 -49 8 -106 18 -125 21 -19 3 -39 9 -45 13 -5 4 -31 13 -58 20 -26 7 -50 17 -53 21 -3 5 -12 9 -21 9 -17 0 -75 24 -148 62 -22 12 -50 26 -62 32 -13 6 -23 14 -23 19 0 4 -5 7 -10 7 -16 0 -36 17 -109 91 -60 60 -119 154 -134 214 -3 11 -17 62 -31 113 -14 51 -26 107 -26 123 0 17 -5 39 -10 49 -13 24 -40 325 -40 445 0 86 10 184 31 305 6 30 14 78 19 105 5 28 18 86 30 130 12 44 25 94 29 110 18 65 73 223 96 273 14 29 25 59 25 67 0 8 4 15 8 15 4 0 14 17 21 38 8 20 17 39 20 42 4 3 15 21 24 40 52 105 147 238 244 338 54 56 73 60 73 14z m3178 -1357 c31 -36 81 -139 91 -188 5 -23 14 -66 20 -95 14 -70 3 -92 -45 -92 -19 0 -54 9 -76 20 -23 11 -48 20 -55 20 -7 0 -13 5 -13 10 0 6 -5 10 -11 10 -12 0 -94 55 -121 82 -18 18 -18 20 29 66 50 49 93 99 93 107 0 11 51 85 58 85 5 0 18 -11 30 -25z"></path><path id="p1GCtglpTS" d="M4127 3500 c-27 -5 -57 -16 -66 -24 -10 -9 -21 -16 -24 -16 -23 0 -90 -73 -117 -127 -31 -61 -40 -192 -16 -228 15 -23 23 -26 64 -23 46 3 48 4 74 58 28 55 102 139 126 140 6 0 12 5 12 10 0 6 6 10 13 10 7 0 34 13 60 30 l47 30 0 64 c0 36 -5 68 -10 71 -18 11 -113 14 -163 5z"></path><path id="p1H7QMJvIX" d="M3714 2375 c-7 -19 -14 -41 -14 -48 0 -8 -7 -20 -15 -27 -8 -7 -15 -18 -15 -24 0 -6 -23 -31 -51 -56 -29 -25 -59 -52 -68 -60 -9 -8 -33 -27 -53 -42 -19 -15 -50 -48 -67 -74 -26 -41 -31 -57 -31 -111 l0 -63 38 0 c25 0 46 8 62 23 14 12 42 34 63 48 107 74 242 201 268 251 22 44 27 186 7 206 -7 7 -34 12 -61 12 -45 0 -49 -2 -63 -35z"></path></g></g><g id="l23gXq5LCVynq4lrX6N1HJf" fill="rgb(130,88,0)" style="transform: none;"><g style="transform: none;"><path id="pFdfg5AuL" d="M2565 5280 c-11 -4 -69 -13 -130 -20 -60 -7 -112 -16 -115 -20 -3 -4 -23 -10 -45 -13 -49 -6 -154 -34 -177 -47 -10 -6 -29 -10 -42 -10 -14 0 -27 -4 -30 -9 -3 -4 -26 -14 -51 -21 -25 -7 -45 -17 -45 -21 0 -5 -6 -9 -14 -9 -18 0 -214 -95 -226 -109 -3 -4 -26 -18 -53 -31 -26 -14 -47 -28 -47 -32 0 -5 -4 -8 -9 -8 -10 0 -101 -58 -111 -70 -3 -3 -21 -17 -40 -30 -19 -13 -40 -29 -46 -35 -7 -5 -31 -26 -55 -45 -56 -45 -102 -94 -192 -200 -37 -43 -107 -142 -107 -150 0 -6 -3 -10 -8 -10 -4 0 -17 -21 -30 -47 -13 -27 -30 -61 -38 -76 -8 -16 -14 -40 -14 -53 0 -21 5 -24 34 -24 19 0 38 -4 41 -10 3 -5 37 -10 75 -10 38 0 72 -4 75 -10 3 -5 22 -10 41 -10 20 0 43 -4 52 -9 9 -5 35 -12 57 -15 22 -4 57 -9 78 -13 21 -3 40 -10 43 -14 3 -5 20 -9 38 -9 17 0 36 -4 42 -8 5 -5 35 -15 67 -22 32 -7 60 -17 63 -22 3 -4 16 -8 29 -8 13 0 27 -4 30 -10 3 -5 13 -10 21 -10 22 0 197 -80 202 -92 2 -5 12 -8 22 -8 10 0 20 -3 22 -7 2 -5 26 -19 53 -33 28 -13 52 -27 55 -30 14 -14 70 -50 80 -50 5 0 10 -4 10 -9 0 -14 58 -31 103 -31 46 0 117 19 117 32 0 4 6 8 14 8 8 0 40 14 71 30 31 17 63 30 71 30 8 0 14 3 14 8 0 4 15 13 33 21 17 7 59 26 92 42 33 16 66 29 73 29 6 0 12 5 12 10 0 6 6 10 12 10 7 0 42 14 78 31 36 17 74 35 85 39 74 32 221 106 235 120 3 3 25 19 49 35 48 32 231 211 231 225 0 5 6 15 13 22 20 21 69 120 78 158 4 19 13 55 19 80 14 54 5 290 -14 341 -57 159 -171 213 -540 254 -146 16 -417 19 -451 5z"></path><path id="pAviRbKMY" d="M861 4035 c-31 -11 -84 -55 -118 -98 -21 -26 -100 -190 -116 -242 -89 -274 -85 -649 9 -940 35 -106 62 -113 109 -24 39 76 49 92 63 107 6 7 12 17 12 22 0 5 6 15 13 22 7 7 24 29 37 48 13 19 27 37 30 40 3 3 21 25 40 50 67 87 220 229 324 300 28 19 53 38 54 43 2 4 10 7 18 7 8 0 14 3 14 8 0 4 21 18 48 32 26 13 49 27 52 30 11 13 82 50 96 50 8 0 14 5 14 10 0 6 5 10 10 10 6 0 32 10 58 21 99 45 111 49 141 55 17 4 34 11 37 15 3 5 16 9 29 9 13 0 26 4 29 9 3 4 34 14 68 20 35 7 72 16 83 21 11 4 28 11 38 14 27 9 21 51 -10 75 -16 12 -33 25 -40 31 -7 5 -14 10 -17 10 -3 0 -28 14 -56 30 -28 17 -57 30 -65 30 -8 0 -15 4 -15 8 0 5 -19 15 -42 21 -24 7 -47 16 -53 20 -5 5 -44 18 -85 30 -41 12 -83 27 -92 32 -10 5 -31 9 -48 9 -17 0 -38 4 -48 10 -31 17 -196 42 -302 46 -58 1 -127 6 -155 9 -94 13 -130 13 -164 0z"></path><path id="p18NTp91gb" d="M2850 3740 c-8 -5 -27 -10 -41 -10 -26 0 -125 -36 -143 -52 -6 -4 -18 -8 -28 -8 -10 0 -18 -4 -18 -9 0 -5 -13 -14 -30 -21 -16 -7 -30 -16 -30 -21 0 -5 -5 -9 -11 -9 -20 0 -106 -90 -132 -139 -28 -50 -56 -147 -64 -218 -5 -40 -3 -43 18 -43 24 0 49 36 49 71 0 10 11 19 30 23 23 4 30 11 30 28 0 27 53 56 110 60 30 3 35 7 38 31 2 15 12 32 23 37 10 6 19 17 19 24 0 16 22 26 56 26 20 0 24 5 24 30 0 22 5 30 18 30 18 1 92 64 92 80 0 6 14 10 30 10 29 0 30 2 30 45 0 42 -2 45 -27 45 -16 0 -35 -5 -43 -10z"></path><path id="pzZYjwAyj" d="M2010 3578 c-19 -5 -39 -14 -44 -19 -6 -5 -23 -9 -38 -9 -15 0 -28 -4 -28 -9 0 -5 -14 -11 -31 -15 -33 -6 -81 -26 -140 -57 -20 -10 -44 -19 -53 -19 -9 0 -16 -4 -16 -10 0 -5 -6 -10 -12 -10 -16 0 -102 -42 -106 -52 -2 -5 -8 -8 -13 -8 -10 0 -183 -114 -205 -134 -7 -6 -31 -27 -55 -46 -64 -51 -198 -189 -244 -248 -21 -29 -43 -52 -47 -52 -4 0 -8 -6 -8 -12 0 -7 -19 -33 -41 -58 -22 -25 -45 -55 -52 -66 -7 -12 -28 -48 -48 -80 -19 -33 -50 -95 -68 -139 -31 -76 -32 -86 -32 -215 0 -121 2 -143 26 -210 15 -41 29 -85 32 -98 3 -12 9 -22 13 -22 4 0 12 -18 19 -41 19 -64 60 -63 61 1 0 17 10 32 30 45 16 11 30 23 30 28 0 4 7 7 15 7 9 0 15 9 15 25 0 17 8 29 25 37 14 6 25 15 25 20 0 4 7 8 15 8 8 0 15 6 15 14 0 7 14 16 30 20 17 3 30 12 30 19 0 8 14 24 30 37 17 13 30 29 30 36 0 8 6 14 14 14 7 0 16 9 19 19 3 11 17 22 37 26 30 7 90 58 90 76 0 5 11 9 25 9 18 0 25 5 25 20 0 11 7 20 15 20 9 0 18 7 21 15 4 8 10 15 16 15 5 0 16 7 24 15 9 8 26 15 39 15 17 0 25 6 27 22 4 30 38 37 38 9 0 -15 6 -21 24 -21 20 0 25 8 36 48 21 85 71 247 80 264 6 10 10 22 10 28 0 27 149 327 178 358 6 7 12 17 12 22 0 5 6 15 13 22 6 7 21 29 31 48 11 19 24 40 28 45 5 6 18 21 29 35 12 14 29 36 38 50 18 28 22 34 51 69 22 27 26 71 8 89 -14 14 -39 14 -88 0z"></path><path id="pYqn8nujM" d="M2235 3511 c-17 -10 -51 -42 -75 -71 -25 -28 -53 -62 -63 -74 -40 -46 -124 -175 -154 -236 -9 -19 -20 -37 -24 -40 -3 -3 -12 -22 -20 -42 -7 -21 -17 -38 -21 -38 -4 0 -8 -7 -8 -15 0 -8 -11 -38 -25 -67 -13 -29 -38 -95 -55 -146 -17 -51 -34 -100 -37 -108 -4 -10 4 -14 31 -14 32 0 36 3 36 25 0 14 5 25 10 25 6 0 10 14 10 30 0 17 4 30 9 30 5 0 11 9 14 20 3 14 14 20 31 20 21 0 26 5 26 25 0 46 28 75 71 75 33 0 40 4 45 26 8 32 66 94 88 94 9 0 29 14 44 30 16 17 34 30 39 30 5 0 15 10 21 23 14 25 62 191 62 211 0 7 6 26 14 42 8 16 17 50 21 76 6 39 4 49 -14 67 -26 26 -38 26 -76 2z"></path><path id="pJ6qeUEky" d="M2346 3192 c-2 -4 -7 -24 -11 -45 -7 -35 -6 -37 19 -37 24 0 26 3 26 45 0 33 -4 45 -14 45 -8 0 -17 -3 -20 -8z"></path></g></g><g id="l6EryU83v1NS5pdlcUsoI7f" fill="rgb(145,103,0)" style="transform: none;"><g style="transform: none;"><path id="pJekUd0tt" d="M5050 4080 c0 -5 -10 -10 -21 -10 -19 0 -95 -36 -109 -50 -3 -3 -21 -17 -40 -30 -19 -13 -37 -27 -40 -31 -3 -3 -15 -19 -27 -35 -85 -109 -104 -142 -161 -279 -27 -67 -82 -302 -82 -354 0 -22 -4 -41 -10 -41 -5 0 -10 -10 -10 -23 0 -26 -33 -142 -57 -197 -50 -119 -102 -201 -170 -267 -29 -29 -53 -57 -53 -63 0 -5 16 -10 35 -10 28 0 35 4 35 20 0 14 7 20 21 20 12 0 23 8 26 20 3 11 12 20 19 20 8 0 14 7 14 15 0 8 5 15 11 15 16 0 38 31 39 53 0 9 7 17 15 17 8 0 15 7 15 15 0 8 4 15 10 15 5 0 12 10 15 23 4 15 18 26 47 35 41 13 55 24 74 57 8 14 25 21 60 25 47 5 49 6 52 38 2 24 8 32 22 32 11 0 23 6 27 14 4 8 24 16 43 18 31 3 35 7 38 33 5 38 19 55 46 55 30 0 66 27 66 51 0 14 7 19 25 19 16 0 25 6 25 15 0 8 7 15 15 15 9 0 24 13 33 29 9 17 24 32 34 34 9 3 18 15 20 28 2 18 10 25 31 27 15 2 27 9 27 17 0 8 12 15 26 17 15 2 32 12 38 23 19 34 34 45 59 45 20 0 27 7 33 33 10 40 5 129 -7 142 -5 5 -9 25 -9 44 0 60 -32 194 -54 225 -32 46 -39 52 -84 75 -44 22 -162 30 -162 11z"></path><path id="pIvPBd5L1" d="M2870 3736 c0 -9 5 -16 10 -16 6 0 10 -7 10 -16 0 -9 -8 -14 -17 -13 -30 3 -43 -1 -43 -11 0 -16 -74 -79 -92 -80 -18 0 -22 -9 -19 -42 1 -10 -4 -18 -13 -18 -9 0 -16 5 -16 10 0 15 -49 -22 -50 -37 0 -7 -9 -17 -19 -23 -11 -5 -21 -22 -23 -37 -3 -24 -8 -28 -38 -31 -57 -4 -110 -33 -110 -60 0 -17 -7 -24 -30 -28 -21 -5 -30 -12 -30 -25 0 -20 -19 -60 -33 -70 -5 -4 -9 -27 -9 -52 -1 -26 -4 -44 -8 -42 -14 9 -40 -301 -40 -470 0 -120 26 -412 40 -440 5 -11 11 -40 13 -65 9 -85 36 -182 89 -319 15 -40 28 -78 28 -83 0 -12 148 -307 160 -318 3 -3 16 -22 30 -42 24 -37 40 -48 40 -29 0 6 19 11 42 13 41 3 43 5 58 50 8 27 19 48 23 48 5 0 19 13 33 29 13 16 38 33 55 36 18 4 35 16 41 30 6 13 24 29 39 36 16 6 29 15 29 20 0 5 11 9 25 9 16 0 25 6 25 16 0 20 45 64 66 64 8 0 14 10 14 23 2 276 9 364 34 440 39 115 129 276 175 315 21 17 19 90 -3 124 -9 14 -19 49 -23 77 -3 28 -10 54 -14 57 -5 3 -9 35 -9 71 0 66 5 104 36 258 39 197 38 224 -10 280 -23 27 -26 38 -26 108 0 43 5 87 10 97 13 24 -14 84 -44 99 -66 33 -197 60 -323 68 -71 4 -83 2 -83 -11z"></path><path id="p11BT28Jpt" d="M2198 3140 c-7 -11 -17 -20 -22 -20 -5 0 -22 -13 -38 -30 -15 -16 -35 -30 -44 -30 -22 0 -80 -62 -88 -94 -5 -22 -12 -25 -42 -24 -43 2 -73 -30 -74 -76 0 -25 -3 -28 -25 -24 -21 4 -26 1 -32 -20 -6 -24 -7 -25 -14 -7 -5 14 -8 4 -8 -29 -1 -47 -2 -49 -17 -30 -14 18 -15 16 -9 -25 5 -38 4 -42 -9 -32 -12 10 -16 5 -24 -31 -6 -24 -22 -87 -36 -141 -14 -54 -26 -109 -26 -123 0 -14 -4 -33 -9 -43 -11 -19 -30 -169 -41 -311 -7 -105 22 -517 40 -550 5 -10 10 -32 10 -49 0 -16 12 -72 26 -123 14 -51 28 -102 31 -113 15 -60 74 -154 134 -214 73 -74 93 -91 109 -91 5 0 10 -4 10 -9 0 -14 41 -24 89 -21 37 2 50 9 85 46 24 24 48 44 54 44 7 0 12 4 12 9 0 5 9 13 20 16 11 3 20 11 20 16 0 17 25 37 50 41 14 2 27 12 30 23 9 35 43 65 72 65 23 0 28 4 28 24 0 18 6 25 22 28 13 2 29 15 36 31 9 18 21 27 38 27 13 0 24 4 24 8 0 5 9 18 20 30 17 18 18 23 5 36 -8 8 -15 18 -15 21 0 4 -13 26 -28 49 -36 53 -182 352 -182 372 0 3 -6 20 -14 37 -7 18 -28 79 -45 137 -18 58 -37 120 -43 138 -35 113 -61 370 -62 612 -1 179 15 438 29 459 3 7 -3 11 -14 11 -12 0 -26 -9 -33 -20z"></path><path id="pJijz4qAu" d="M4200 2648 c-39 -40 -40 -43 -20 -46 12 -2 33 -1 46 2 20 5 24 13 24 46 0 22 -2 40 -4 40 -3 0 -23 -19 -46 -42z"></path><path id="pZgYSxPGc" d="M1570 2633 c0 -6 5 -15 10 -18 20 -12 10 -35 -14 -35 -42 0 -76 -18 -76 -40 0 -15 -7 -20 -24 -20 -14 0 -31 -7 -40 -15 -8 -8 -19 -15 -24 -15 -6 0 -12 -7 -16 -15 -3 -8 -12 -15 -21 -15 -8 0 -15 -9 -15 -20 0 -15 -7 -20 -25 -20 -14 0 -25 -4 -25 -9 0 -18 -60 -69 -90 -76 -20 -4 -34 -15 -37 -26 -3 -10 -12 -19 -19 -19 -8 0 -14 -6 -14 -14 0 -7 -13 -23 -30 -36 -16 -13 -30 -29 -30 -36 0 -15 -35 -28 -50 -19 -5 3 -10 -3 -10 -14 0 -12 -7 -21 -15 -21 -8 0 -15 -3 -15 -7 0 -5 -13 -15 -29 -25 -22 -12 -28 -21 -24 -37 4 -15 1 -21 -11 -21 -9 0 -16 -3 -16 -7 0 -5 -14 -17 -30 -28 -21 -14 -30 -28 -30 -47 0 -16 -4 -28 -9 -28 -25 0 13 -89 85 -199 54 -82 65 -98 84 -121 8 -11 26 -33 40 -51 75 -98 333 -329 367 -329 5 0 18 -8 29 -18 10 -9 42 -28 69 -42 28 -14 51 -28 53 -32 2 -5 17 -8 34 -8 l30 0 -5 53 c-3 28 -15 95 -27 147 -49 218 -59 306 -59 540 0 107 4 227 10 265 5 39 14 102 19 140 5 39 16 106 24 150 12 61 12 81 3 87 -8 5 -7 8 4 8 17 0 29 19 29 46 0 8 -7 14 -15 14 -13 0 -14 4 -5 20 6 12 7 20 1 20 -5 0 -12 -6 -14 -12 -4 -10 -8 -9 -16 2 -7 9 -11 10 -11 3z"></path></g></g><g id="lAbwSZKRcsOi4kItkiONUF" fill="rgb(156,118,0)" style="transform: none;"><g style="transform: none;"><path id="pVEkO3SIL" d="M5340 3626 c0 -9 -8 -16 -17 -17 -11 0 -13 -3 -5 -6 25 -10 11 -24 -18 -18 -23 5 -30 3 -30 -9 0 -9 -3 -16 -8 -16 -4 0 -12 -10 -17 -22 -8 -18 -17 -22 -42 -20 -28 3 -31 1 -26 -19 5 -19 3 -21 -21 -17 -24 5 -28 2 -33 -25 -3 -16 -13 -32 -22 -34 -9 -2 -24 -18 -34 -36 -14 -24 -20 -28 -27 -17 -7 11 -10 7 -15 -13 -5 -20 -13 -27 -31 -27 -17 0 -24 -6 -24 -19 0 -24 -36 -51 -67 -51 -12 0 -25 -4 -28 -10 -3 -5 -21 -10 -38 -10 l-32 -1 28 -17 c28 -17 35 -36 17 -47 -5 -3 -10 -1 -10 4 0 21 -40 11 -56 -14 -15 -24 -17 -24 -30 -8 -12 17 -13 17 -19 1 -4 -10 -16 -18 -26 -18 -13 0 -19 -7 -19 -24 0 -26 -15 -42 -44 -47 -10 -2 -24 -13 -30 -24 -19 -33 -33 -44 -75 -57 -23 -7 -41 -18 -41 -25 0 -6 -6 -18 -13 -25 -8 -7 -16 -20 -20 -28 -4 -11 -6 -10 -6 4 -1 15 -3 16 -17 6 -8 -7 -14 -23 -13 -34 3 -32 -11 -56 -33 -56 -13 0 -18 -5 -15 -14 4 -10 1 -13 -8 -10 -8 4 -15 -3 -17 -18 -2 -13 -10 -23 -18 -23 -8 0 -19 -10 -26 -22 -6 -13 -14 -20 -18 -16 -9 9 -76 -57 -76 -76 0 -8 -3 -11 -7 -7 -12 12 -91 -83 -125 -151 -31 -64 -33 -74 -39 -218 -4 -82 -12 -168 -18 -190 -33 -127 -35 -142 -18 -168 8 -13 46 -39 84 -56 37 -18 76 -36 85 -41 10 -6 28 -10 41 -10 13 0 27 -4 32 -9 15 -14 143 -31 229 -31 86 0 226 18 241 31 5 5 21 9 36 9 15 0 30 4 33 9 3 5 18 12 32 15 40 10 104 40 104 48 0 5 6 8 13 8 39 0 200 133 277 228 49 60 130 246 130 297 0 12 4 25 9 30 5 6 17 57 28 115 15 90 18 157 17 480 -1 418 -15 592 -47 598 -10 2 -17 -3 -17 -12z"></path><path id="plgS7usux" d="M3120 1785 c0 -15 -6 -25 -14 -25 -21 0 -66 -44 -66 -64 0 -10 -9 -16 -25 -16 -14 0 -25 -4 -25 -9 0 -5 -13 -14 -29 -20 -15 -7 -33 -23 -39 -36 -6 -14 -23 -26 -41 -30 -17 -3 -42 -20 -55 -36 -14 -16 -29 -29 -35 -29 -6 0 -11 -6 -11 -14 0 -7 -7 -30 -15 -50 -13 -30 -19 -35 -32 -27 -17 9 -63 -5 -63 -20 0 -15 23 -59 31 -59 4 0 10 -8 13 -17 4 -10 19 -32 34 -49 15 -18 47 -55 71 -84 24 -28 67 -73 94 -98 27 -26 55 -52 61 -57 9 -9 93 -72 162 -122 26 -20 161 -89 224 -116 84 -36 256 -40 335 -7 11 4 49 18 85 30 69 23 273 120 278 133 2 4 10 7 18 7 8 0 14 3 14 8 0 4 13 13 28 20 16 6 37 20 48 30 10 9 31 23 47 31 15 8 27 18 27 23 0 4 5 8 10 8 6 0 18 8 28 17 10 10 52 47 92 83 103 92 265 296 285 361 4 10 11 19 16 19 5 0 9 5 9 11 0 6 7 26 16 45 9 19 15 37 12 39 -2 3 -20 0 -39 -5 -53 -16 -313 -12 -394 6 -38 8 -83 17 -100 20 -16 3 -43 12 -60 19 -16 7 -42 17 -57 20 -16 4 -28 11 -28 16 0 5 -8 9 -18 9 -11 0 -34 7 -51 16 -32 16 -97 14 -110 -3 -3 -4 -26 -19 -51 -32 -25 -14 -47 -27 -50 -30 -8 -9 -47 -30 -135 -73 -44 -22 -88 -44 -97 -49 -10 -5 -25 -9 -33 -9 -8 0 -23 -4 -33 -9 -28 -16 -108 -31 -159 -31 -90 0 -121 46 -130 188 -5 81 -8 92 -24 92 -14 0 -19 -7 -19 -25z"></path><path id="pJ6Nq3W0n" d="M2564 1322 c8 -14 -23 -45 -39 -38 -9 3 -24 -3 -35 -14 -11 -11 -15 -20 -9 -20 8 0 8 -5 -1 -15 -7 -8 -21 -15 -31 -15 -14 0 -19 -7 -19 -25 0 -21 -5 -25 -28 -25 -15 0 -35 -9 -45 -20 -9 -11 -24 -20 -33 -20 -13 0 -14 -3 -4 -15 16 -19 4 -35 -26 -35 -13 0 -24 -4 -24 -10 0 -5 -10 -10 -22 -10 -19 0 -20 -2 -8 -11 11 -8 12 -12 2 -16 -7 -2 -19 -11 -26 -19 -8 -8 -18 -14 -22 -14 -4 0 -27 -20 -51 -45 -23 -25 -46 -45 -50 -45 -3 0 -15 8 -25 17 -23 20 -41 6 -36 -27 2 -15 18 -30 48 -46 81 -41 136 -64 153 -64 9 0 18 -4 21 -9 3 -4 27 -14 53 -21 27 -7 53 -16 58 -20 6 -4 26 -10 45 -13 19 -3 76 -13 125 -21 191 -32 228 -36 319 -36 52 0 116 4 143 10 26 5 80 14 120 20 76 12 111 34 81 51 -10 5 -24 16 -32 24 -8 8 -18 15 -23 15 -5 0 -24 13 -43 30 -19 16 -39 29 -43 30 -5 0 -14 6 -21 13 -7 6 -30 26 -51 42 -81 63 -193 169 -240 226 -73 89 -95 119 -95 128 0 6 -4 11 -9 11 -5 0 -14 14 -21 30 -9 22 -19 30 -37 30 -13 0 -22 -3 -19 -8z"></path></g></g><g id="l56LVfVoX5P0AaDXZGeNwl1" fill="rgb(230,233,148)" style="transform: none;"><g style="transform: none;"><path id="pIrV6d57e" d="M3704 5065 c-4 -9 -1 -28 5 -43 23 -49 35 -187 35 -382 0 -207 -10 -310 -44 -455 -32 -139 -37 -156 -60 -215 -12 -30 -25 -67 -30 -82 -5 -15 -21 -51 -35 -80 -15 -29 -31 -61 -36 -70 -16 -32 -34 -63 -39 -68 -3 -3 -11 -16 -18 -29 -8 -13 -22 -39 -33 -58 -29 -52 -25 -85 12 -102 23 -10 34 -10 42 -2 6 6 19 11 28 11 10 0 19 4 21 8 3 8 37 28 161 95 20 12 37 24 37 28 0 3 14 12 30 19 17 7 30 16 30 21 0 5 5 9 10 9 6 0 18 8 28 18 11 9 32 26 47 37 66 46 221 196 283 272 141 176 186 288 163 411 -15 80 -43 159 -79 227 -35 64 -50 83 -147 180 -89 88 -120 115 -135 115 -6 0 -10 4 -10 9 0 5 -13 14 -30 21 -16 7 -30 16 -30 21 0 5 -6 9 -14 9 -8 0 -16 3 -18 8 -4 9 -90 52 -105 52 -6 0 -13 4 -15 9 -1 4 -13 12 -26 15 -16 5 -24 3 -28 -9z"></path><path id="pQq5t8BYj" d="M4794 4360 c-28 -4 -69 -13 -90 -20 -88 -27 -254 -119 -254 -140 0 -11 -85 -156 -102 -175 -7 -7 -24 -28 -38 -46 -14 -18 -42 -50 -62 -72 -21 -21 -38 -40 -38 -42 0 -5 -69 -75 -74 -75 -2 0 -19 -15 -37 -33 -19 -17 -58 -52 -88 -77 -30 -25 -60 -51 -67 -57 -7 -7 -17 -13 -23 -13 -6 0 -11 -4 -11 -9 0 -4 -33 -32 -72 -62 -40 -29 -78 -58 -84 -64 -7 -5 -31 -26 -55 -45 -104 -84 -182 -184 -215 -273 -45 -123 -48 -142 -49 -272 0 -122 2 -134 28 -190 17 -37 41 -70 62 -85 19 -14 35 -29 35 -33 0 -5 -28 -36 -63 -70 -34 -34 -71 -75 -82 -91 -11 -15 -25 -33 -30 -40 -18 -20 -63 -110 -79 -158 -29 -84 -48 -221 -47 -344 0 -151 13 -209 52 -229 26 -14 34 -13 111 15 46 16 101 38 123 50 21 11 45 20 51 20 7 0 14 3 16 8 2 4 21 16 43 27 103 50 202 152 258 265 l42 84 -3 153 c-3 163 4 201 49 297 21 45 123 159 175 196 47 33 91 78 134 135 59 79 73 105 99 195 37 125 37 122 71 376 10 68 52 212 77 259 48 92 88 163 105 185 34 44 169 180 179 180 5 0 9 3 9 8 0 6 60 39 115 63 37 16 110 29 166 29 43 0 58 4 63 16 7 19 -22 84 -38 84 -6 0 -18 9 -26 20 -8 11 -22 20 -30 20 -9 0 -20 4 -25 9 -25 24 -180 36 -281 21z m-531 -897 c4 -2 7 -20 7 -39 0 -30 -6 -38 -47 -64 -26 -17 -53 -30 -60 -30 -7 0 -13 -4 -13 -10 0 -5 -5 -10 -11 -10 -22 0 -102 -87 -125 -138 -29 -63 -50 -75 -77 -41 -35 44 -3 176 58 240 30 31 64 59 72 59 3 0 14 7 24 16 28 26 137 37 172 17z m-455 -1095 c19 -19 14 -104 -7 -146 -26 -50 -161 -177 -268 -251 -21 -14 -49 -36 -63 -48 -33 -31 -40 -29 -40 10 0 41 48 117 98 155 20 15 44 34 53 42 9 8 39 35 68 60 28 25 51 50 51 56 0 6 7 17 15 24 8 7 15 19 15 27 0 7 7 29 14 48 16 36 41 46 64 23z"></path><path id="paOfU4paF" d="M5392 2136 c-23 -36 -42 -68 -42 -71 0 -16 -146 -165 -162 -165 -17 0 -7 -23 26 -55 40 -39 120 -95 135 -95 6 0 11 -4 11 -10 0 -5 6 -10 13 -10 7 0 32 -9 54 -20 25 -12 67 -21 103 -22 51 -3 64 0 76 16 16 22 17 71 5 131 -5 22 -14 63 -20 92 -11 55 -59 158 -90 196 -11 12 -30 35 -43 50 l-24 29 -42 -66z"></path></g></g></svg>