<svg class="img-fluid" id="outputsvg" xmlns="http://www.w3.org/2000/svg" style="transform: matrix(1, 0, 0, 1, -46, 48); transform-origin: 50% 50%; cursor: move; transition: none;" width="600" height="600" viewBox="0 0 6000 6000"><g id="lEGZZGhkc3GTHYwHkC6CDs" fill="rgb(229,230,155)" style="transform: none;"><g><path id="p5jWkevVU" d="M2955 4600 c-11 -4 -69 -13 -130 -20 -60 -7 -112 -16 -115 -20 -3 -4 -23 -10 -45 -13 -49 -6 -154 -34 -177 -47 -10 -6 -29 -10 -42 -10 -14 0 -27 -4 -30 -9 -3 -4 -26 -14 -51 -21 -25 -7 -45 -17 -45 -21 0 -5 -6 -9 -14 -9 -18 0 -214 -95 -226 -109 -3 -4 -26 -18 -53 -31 -26 -14 -47 -28 -47 -32 0 -5 -4 -8 -9 -8 -10 0 -101 -58 -111 -70 -3 -3 -21 -17 -40 -30 -19 -13 -40 -29 -46 -35 -7 -5 -31 -26 -55 -45 -56 -45 -102 -94 -192 -200 -37 -43 -107 -142 -107 -150 0 -6 -3 -10 -8 -10 -4 0 -17 -21 -30 -47 -13 -27 -30 -61 -38 -76 -22 -45 -18 -57 20 -57 19 0 38 -4 41 -10 3 -5 37 -10 75 -10 38 0 72 -4 75 -10 3 -5 20 -10 37 -10 18 0 45 -4 62 -9 17 -6 58 -15 91 -21 33 -7 68 -16 77 -21 10 -5 30 -9 46 -9 15 0 32 -4 38 -8 5 -5 35 -15 67 -22 32 -7 60 -17 63 -22 3 -4 16 -8 29 -8 13 0 27 -4 30 -10 3 -5 13 -10 21 -10 22 0 197 -80 202 -92 2 -5 12 -8 22 -8 10 0 20 -3 22 -7 2 -5 26 -19 53 -33 28 -13 52 -27 55 -30 14 -14 70 -50 80 -50 5 0 10 -4 10 -9 0 -12 56 -31 93 -31 38 0 107 20 107 32 0 4 6 8 14 8 8 0 40 14 71 30 31 17 63 30 71 30 8 0 14 3 14 8 0 4 15 13 33 21 17 7 59 26 92 42 33 16 66 29 73 29 6 0 12 5 12 10 0 6 6 10 12 10 7 0 42 14 78 31 36 17 74 35 85 39 74 32 221 106 235 120 3 3 25 19 49 35 48 32 231 211 231 225 0 5 6 15 13 22 20 21 69 120 78 158 4 19 13 55 19 80 14 53 5 266 -13 320 -52 157 -173 214 -542 255 -140 16 -397 19 -430 5z"></path><path id="pickGSsob" d="M4095 4373 c8 -19 17 -63 36 -178 12 -78 7 -402 -10 -525 -8 -65 -31 -174 -60 -290 -5 -19 -19 -60 -31 -90 -12 -30 -25 -67 -30 -82 -5 -15 -21 -51 -35 -80 -15 -29 -31 -61 -36 -70 -16 -32 -34 -63 -39 -68 -3 -3 -11 -16 -18 -29 -8 -13 -22 -39 -33 -58 -10 -18 -19 -41 -19 -51 0 -19 47 -45 56 -31 3 5 14 9 24 9 10 0 20 4 22 8 3 8 37 28 161 95 20 12 37 24 37 28 0 3 14 12 30 19 17 7 30 16 30 21 0 5 5 9 10 9 6 0 18 8 28 18 11 9 32 26 47 37 53 37 89 70 175 157 118 120 173 191 226 288 46 85 59 149 44 223 -21 108 -74 233 -125 297 -25 31 -173 179 -203 203 -12 9 -27 17 -32 17 -6 0 -10 4 -10 9 0 5 -13 14 -30 21 -16 7 -30 16 -30 21 0 5 -6 9 -14 9 -8 0 -16 3 -18 8 -4 10 -90 52 -105 52 -7 0 -13 5 -13 10 0 6 -9 10 -21 10 -16 0 -19 -4 -14 -17z"></path><path id="pfW2SJ1FU" d="M5184 3680 c-28 -4 -69 -13 -90 -20 -88 -27 -254 -119 -254 -140 0 -11 -85 -156 -102 -175 -7 -7 -24 -28 -38 -46 -14 -18 -42 -50 -62 -72 -21 -21 -38 -40 -38 -42 0 -5 -69 -75 -74 -75 -2 0 -19 -15 -37 -33 -19 -17 -58 -52 -88 -77 -30 -25 -60 -51 -67 -57 -7 -7 -17 -13 -23 -13 -6 0 -11 -4 -11 -9 0 -4 -33 -32 -72 -62 -40 -29 -78 -58 -84 -64 -7 -5 -31 -26 -55 -45 -104 -84 -182 -184 -215 -273 -44 -121 -48 -143 -49 -262 0 -111 2 -125 28 -180 17 -37 41 -70 62 -85 19 -14 35 -33 35 -43 0 -10 -28 -46 -63 -80 -34 -34 -71 -75 -82 -91 -11 -15 -25 -33 -30 -40 -18 -20 -63 -110 -79 -158 -43 -126 -62 -387 -35 -493 16 -64 41 -74 117 -50 31 9 84 30 118 46 34 16 66 29 72 29 6 0 12 3 14 8 2 4 21 16 43 27 103 50 202 152 258 265 l42 84 -3 152 c-3 162 3 201 49 298 21 45 123 159 175 196 47 33 91 78 134 135 59 79 73 105 99 195 37 125 37 122 71 376 10 68 52 212 77 259 48 92 88 163 105 185 34 44 169 180 179 180 5 0 9 3 9 8 0 6 60 39 115 63 37 16 110 29 168 29 52 0 57 2 57 23 -1 24 -21 57 -36 57 -5 0 -16 9 -24 20 -8 11 -22 20 -30 20 -9 0 -20 4 -25 9 -12 12 -127 31 -175 30 -19 -1 -58 -5 -86 -9z m-532 -876 c5 -3 8 -25 8 -50 0 -42 -2 -46 -47 -74 -26 -17 -53 -30 -60 -30 -7 0 -13 -4 -13 -10 0 -5 -6 -10 -12 -10 -24 -1 -98 -85 -126 -140 -21 -44 -32 -56 -54 -58 -20 -2 -31 4 -44 23 -33 51 0 193 61 256 30 31 64 59 72 59 3 0 14 7 24 16 30 27 157 39 191 18z m-454 -1096 c19 -19 15 -123 -7 -166 -26 -50 -161 -177 -268 -251 -21 -14 -49 -36 -63 -48 -41 -37 -60 -31 -60 20 0 52 42 123 98 165 20 15 44 34 53 42 9 8 39 35 68 60 28 25 51 50 51 56 0 6 7 17 15 24 8 7 15 19 15 27 0 7 7 29 14 48 12 28 20 35 43 35 16 0 34 -5 41 -12z"></path><path id="p12npIDQmf" d="M5440 3400 c0 -5 -10 -10 -21 -10 -19 0 -95 -36 -109 -50 -3 -3 -21 -17 -40 -30 -19 -13 -37 -27 -40 -31 -3 -3 -15 -19 -27 -35 -85 -109 -104 -142 -161 -279 -27 -67 -82 -302 -82 -354 0 -22 -4 -41 -10 -41 -5 0 -10 -10 -10 -23 0 -42 -43 -173 -88 -267 -50 -105 -84 -147 -242 -295 -75 -70 -134 -158 -155 -229 -10 -31 -15 -92 -15 -164 0 -111 -3 -133 -37 -251 -24 -83 -11 -98 146 -171 25 -11 54 -20 66 -20 11 0 25 -4 30 -9 14 -13 142 -31 219 -31 78 0 217 19 231 31 5 5 21 9 36 9 15 0 30 4 33 9 3 5 18 12 32 15 40 10 104 40 104 48 0 5 6 8 13 8 39 0 200 133 277 228 49 60 130 246 130 297 0 12 4 25 9 31 5 5 17 56 28 114 26 153 26 722 -1 965 -10 94 -23 174 -27 180 -5 5 -9 25 -9 44 0 60 -32 194 -54 225 -32 46 -39 52 -84 75 -43 22 -142 30 -142 11z"></path><path id="p2TPbPQBD" d="M1251 3355 c-31 -11 -83 -54 -118 -98 -21 -26 -100 -190 -116 -242 -88 -271 -84 -632 9 -918 34 -107 45 -110 89 -25 39 75 49 91 63 106 6 7 12 17 12 22 0 5 6 15 13 22 7 7 24 29 37 48 13 19 27 37 30 40 3 3 21 25 40 50 67 87 220 229 324 300 28 19 53 38 54 43 2 4 10 7 18 7 8 0 14 3 14 8 0 4 21 18 48 32 26 13 49 27 52 30 11 13 82 50 96 50 8 0 14 5 14 10 0 6 5 10 10 10 6 0 32 10 58 21 99 45 111 49 141 55 17 4 34 11 37 15 3 5 16 9 29 9 13 0 26 4 29 9 3 4 34 14 68 20 35 7 72 16 83 21 11 4 28 11 38 14 25 8 21 32 -10 55 -16 12 -33 25 -40 31 -7 5 -14 10 -17 10 -3 0 -28 14 -56 30 -28 17 -57 30 -65 30 -8 0 -15 4 -15 8 0 5 -19 15 -42 21 -24 7 -47 16 -53 20 -5 5 -44 18 -85 30 -41 12 -83 27 -92 32 -10 5 -31 9 -48 9 -17 0 -38 4 -48 10 -32 18 -196 42 -312 46 -63 2 -135 6 -160 10 -74 11 -93 11 -129 -1z"></path><path id="p1YXoT2Gx" d="M3240 3060 c-8 -5 -27 -10 -41 -10 -26 0 -125 -36 -143 -52 -6 -4 -18 -8 -28 -8 -10 0 -18 -4 -18 -9 0 -5 -13 -14 -30 -21 -16 -7 -30 -16 -30 -21 0 -5 -5 -9 -11 -9 -20 0 -106 -90 -132 -139 -26 -47 -55 -144 -63 -211 -3 -19 -11 -71 -19 -115 -17 -93 -35 -335 -35 -462 0 -110 27 -401 40 -428 5 -11 11 -40 13 -65 9 -85 36 -182 89 -319 15 -40 28 -78 28 -83 0 -12 148 -307 160 -318 3 -3 19 -25 35 -50 17 -25 36 -51 43 -58 6 -7 12 -16 12 -20 0 -4 13 -21 28 -38 15 -18 47 -55 71 -84 24 -28 67 -73 94 -98 27 -26 55 -52 61 -57 9 -9 93 -72 162 -122 26 -20 161 -89 224 -116 82 -35 238 -39 315 -7 11 4 49 18 85 30 69 23 273 120 278 133 2 4 10 7 18 7 8 0 14 3 14 8 0 4 13 13 28 20 16 6 37 20 48 30 10 9 31 23 47 31 15 8 27 18 27 23 0 4 5 8 10 8 6 0 18 8 28 18 10 9 52 46 92 82 98 87 227 247 275 341 10 19 21 36 25 39 4 3 11 19 17 35 l10 30 -171 -3 c-129 -2 -190 1 -246 13 -41 9 -88 18 -105 21 -16 3 -43 12 -60 19 -16 7 -42 17 -57 20 -16 4 -28 11 -28 16 0 5 -8 9 -18 9 -11 0 -33 7 -51 16 -30 15 -78 13 -91 -4 -3 -4 -25 -18 -50 -31 -25 -14 -47 -27 -50 -30 -8 -9 -47 -30 -135 -73 -44 -22 -88 -44 -97 -49 -10 -5 -25 -9 -33 -9 -8 0 -23 -4 -33 -9 -30 -17 -109 -31 -169 -31 -106 0 -129 36 -144 225 -15 183 -4 369 27 462 37 110 127 273 173 311 19 16 18 73 -3 105 -9 13 -19 48 -23 76 -3 28 -10 54 -14 57 -5 3 -9 40 -9 81 0 76 5 113 36 268 37 185 36 207 -11 260 -25 29 -26 33 -24 140 4 123 -1 147 -34 163 -93 47 -368 89 -407 62z"></path><path id="pX3PRJ2Nu" d="M2400 2898 c-19 -5 -39 -14 -44 -19 -6 -5 -23 -9 -38 -9 -15 0 -28 -4 -28 -9 0 -5 -14 -11 -31 -15 -33 -6 -81 -26 -140 -57 -20 -10 -44 -19 -53 -19 -9 0 -16 -4 -16 -10 0 -5 -6 -10 -12 -10 -16 0 -102 -42 -106 -52 -2 -5 -8 -8 -13 -8 -10 0 -183 -114 -205 -134 -7 -6 -31 -27 -55 -46 -64 -51 -198 -189 -244 -248 -21 -29 -43 -52 -47 -52 -4 0 -8 -6 -8 -12 0 -7 -19 -33 -41 -58 -22 -25 -45 -55 -52 -66 -7 -12 -28 -48 -48 -80 -19 -33 -50 -94 -67 -138 -30 -74 -32 -86 -32 -205 0 -110 3 -137 26 -201 14 -41 28 -85 31 -97 3 -13 9 -23 14 -23 5 0 9 -6 9 -12 0 -35 131 -264 200 -348 8 -11 26 -33 40 -51 75 -98 333 -329 367 -329 5 0 18 -8 29 -18 10 -9 42 -28 69 -42 28 -14 52 -28 53 -32 2 -5 13 -8 24 -8 18 0 19 5 15 43 -3 23 -15 85 -27 137 -50 220 -59 306 -60 549 0 125 6 242 14 305 8 55 17 117 19 136 10 71 28 167 44 220 45 160 75 257 83 272 6 10 10 22 10 28 0 27 149 327 178 358 6 7 12 17 12 22 0 5 6 15 13 22 6 7 21 29 31 48 11 19 24 40 28 45 5 6 18 21 29 35 12 14 29 36 38 50 18 28 22 34 51 69 23 27 25 52 8 69 -14 14 -20 14 -68 0z"></path><path id="p1Dz1KjyQu" d="M2623 2831 c-16 -10 -49 -42 -73 -71 -25 -28 -53 -62 -63 -74 -40 -46 -124 -175 -154 -236 -9 -19 -20 -37 -24 -40 -3 -3 -12 -22 -20 -42 -7 -21 -17 -38 -21 -38 -4 0 -8 -7 -8 -15 0 -8 -11 -38 -25 -67 -23 -50 -79 -209 -96 -273 -4 -16 -19 -74 -33 -128 -14 -54 -26 -109 -26 -123 0 -14 -4 -33 -9 -43 -11 -20 -31 -174 -40 -311 -7 -105 21 -497 39 -530 5 -10 10 -32 10 -49 0 -16 12 -72 26 -123 14 -51 28 -102 31 -113 15 -60 74 -154 134 -214 73 -74 93 -91 109 -91 5 0 10 -3 10 -7 0 -5 10 -13 23 -19 12 -6 40 -20 62 -32 73 -38 131 -62 148 -62 9 0 18 -4 21 -9 3 -4 27 -14 53 -21 27 -7 53 -16 58 -20 6 -4 26 -10 45 -13 19 -3 76 -13 125 -21 189 -31 228 -36 309 -36 47 0 106 4 133 10 26 5 81 14 120 20 40 7 75 15 78 19 5 8 -40 51 -53 51 -4 0 -23 13 -42 30 -19 16 -39 29 -43 30 -5 0 -14 6 -21 13 -7 6 -30 26 -51 42 -81 63 -193 169 -240 226 -73 89 -95 119 -95 128 0 6 -4 11 -9 11 -5 0 -14 13 -21 30 -7 16 -16 30 -21 30 -5 0 -9 5 -9 11 0 6 -13 30 -28 53 -36 53 -182 352 -182 372 0 3 -6 20 -14 37 -7 18 -28 79 -45 137 -18 58 -37 120 -43 138 -35 115 -61 371 -62 622 -1 249 15 429 48 543 14 48 26 96 26 107 0 10 4 21 9 24 5 4 14 29 20 57 17 78 -11 113 -66 80z"></path><path id="pExOJrlRL" d="M5780 1453 c-19 -31 -37 -60 -39 -66 -11 -28 -146 -167 -163 -167 -14 0 53 -63 105 -99 25 -17 50 -31 56 -31 6 0 11 -4 11 -10 0 -5 6 -10 13 -10 7 0 32 -9 54 -20 23 -11 65 -20 94 -21 76 -3 91 25 70 126 -5 22 -14 63 -20 92 -11 56 -59 159 -90 196 -11 12 -28 32 -38 44 l-18 23 -35 -57z"></path></g></g></svg>